<?xml version="1.0" encoding="UTF-8"?>
<svg version="1.1" xmlns="http://www.w3.org/2000/svg" width="1024" height="1024">
<path d="M0 0 C0.58604004 0.47324707 1.17208008 0.94649414 1.77587891 1.43408203 C11.47211123 9.29479123 20.43693617 17.78695927 28.52734375 27.30859375 C31.61176639 30.93296268 31.61176639 30.93296268 35.875 32.875 C39.76799216 33.03071969 40.8400727 32.24460629 44 30 C46.13483242 27.97433514 48.10023645 25.81681136 50.0625 23.625 C50.57876953 23.06039062 51.09503906 22.49578125 51.62695312 21.9140625 C53.88801412 19.42545524 56.06241957 16.92126751 58.15234375 14.28515625 C61.03880275 10.71522282 64.50126239 7.95295753 68 5 C68.87785156 4.23429687 69.75570313 3.46859375 70.66015625 2.6796875 C105.65015518 -27.36556057 149.542389 -41.54360289 195.51171875 -38.46484375 C235.06110563 -35.31110622 274.6118064 -17.46304357 301.26171875 12.546875 C303.56245612 15.32542694 305.78891349 18.14965378 308 21 C308.86895373 22.09181325 309.7387715 23.1829393 310.609375 24.2734375 C314.90727864 29.70357606 318.92895519 35.08348105 322.0625 41.29296875 C322.99740629 43.18367353 322.99740629 43.18367353 325 45 C348.23922438 90.34136132 351.90900847 142.4641542 336.8125 190.9375 C329.74394229 212.73189999 319.91274768 234.03260841 307 253 C306.33742188 253.98613281 305.67484375 254.97226562 304.9921875 255.98828125 C296.2752849 268.78244474 286.95485148 281.143275 277 293 C276.12885921 294.04683585 275.25776762 295.09371266 274.38671875 296.140625 C268.62175978 303.04026451 262.67525873 309.74015692 256.55238342 316.32637024 C255.04572091 317.95070814 253.54522389 319.58054095 252.0456543 321.21142578 C243.11587331 330.8885089 233.89763031 340.25706669 224.57519531 349.55517578 C222.10363975 352.02131342 219.63755296 354.49283104 217.171875 356.96484375 C215.57584177 358.56021697 213.9794988 360.15528039 212.3828125 361.75 C211.65869171 362.47614502 210.93457092 363.20229004 210.18850708 363.95043945 C206.16241165 367.95827397 202.0382947 371.78880523 197.73654175 375.49926758 C195.77782711 377.19200348 193.87909687 378.93822183 192 380.71875 C191.34 381.34136719 190.68 381.96398437 190 382.60546875 C189.34 383.23066406 188.68 383.85585938 188 384.5 C183.36792633 388.88780416 178.68427443 393.18693761 173.86621094 397.37011719 C171.24332674 399.66085174 168.68473314 402.01380572 166.125 404.375 C158.84928087 411.0686616 151.51788301 417.6941019 144.0625 424.1875 C141.69035571 426.27211164 139.34443935 428.38428644 137 430.5 C131.66437363 435.31014801 126.28413119 440.05980237 120.8125 444.71484375 C115.05734968 449.61574527 109.35096144 454.54185014 103.8125 459.6875 C99.26546013 463.91076845 94.54864313 467.86328724 89.71484375 471.75390625 C86.89326505 474.0883059 84.19409288 476.51990598 81.5 479 C77.11156826 483.03462607 72.594132 486.83879936 67.953125 490.578125 C65.17480879 492.85663829 62.45843806 495.19031715 59.74951172 497.55004883 C44.73677663 510.59870876 44.73677663 510.59870876 37.5 513.3125 C27.29235224 512.40110288 19.05260317 502.94923759 11.68554688 496.46337891 C9.27701948 494.37231384 6.79775436 492.37385458 4.3125 490.375 C-0.38025975 486.56857408 -4.82606263 482.54172229 -9.26953125 478.44921875 C-11.84459883 476.13939418 -14.48254363 473.96756987 -17.1875 471.8125 C-22.67741341 467.38615955 -27.75849095 462.58513452 -32.87231445 457.7331543 C-38.36851287 452.53900919 -44.04188792 447.59952505 -49.8125 442.71484375 C-53.53055367 439.5649496 -57.14359229 436.3036528 -60.75390625 433.03125 C-65.07154469 429.12660307 -69.38827056 425.24237477 -74 421.6875 C-74.66 421.130625 -75.32 420.57375 -76 420 C-76 419.34 -76 418.68 -76 418 C-76.59006836 417.7321167 -77.18013672 417.4642334 -77.78808594 417.18823242 C-80.02184458 415.98826517 -81.56273425 414.73387987 -83.390625 412.98828125 C-84.01839844 412.39466797 -84.64617187 411.80105469 -85.29296875 411.18945312 C-86.26169922 410.26036133 -86.26169922 410.26036133 -87.25 409.3125 C-91.75549707 405.02352478 -96.31067633 400.83013122 -101.00878906 396.75268555 C-104.32925891 393.82997183 -107.53590959 390.78863138 -110.75 387.75 C-115.55882866 383.22286004 -120.37537441 378.70630253 -125.25 374.25 C-126.14726807 373.42959229 -127.04453613 372.60918457 -127.96899414 371.76391602 C-129.86819877 370.02945449 -131.77335819 368.30249298 -133.68334961 366.57983398 C-141.15814814 359.80442413 -148.36290718 352.79233149 -155.48364258 345.64672852 C-157.32454708 343.80041754 -159.17080272 341.95957727 -161.01757812 340.11914062 C-166.34160275 334.79811215 -171.61222874 329.48716131 -176.49389648 323.7512207 C-179.17862254 320.62955755 -182.04355134 317.67547886 -184.875 314.6875 C-190.53387465 308.66372884 -195.84546612 302.46265929 -201 296 C-201.99145868 294.79780138 -202.98509829 293.59739933 -203.98046875 292.3984375 C-217.43877835 276.13996741 -229.14619933 259.09472252 -240 241 C-240.4110498 240.3198584 -240.82209961 239.6397168 -241.24560547 238.93896484 C-247 229.40489425 -247 229.40489425 -247 227 C-247.66 226.67 -248.32 226.34 -249 226 C-249.93408203 224.04003906 -249.93408203 224.04003906 -250.8828125 221.515625 C-252.18285804 218.12660712 -253.5052538 214.76061928 -254.9296875 211.421875 C-274.52238017 164.71460586 -277.59569026 111.47633663 -258.6640625 63.98046875 C-250.11815243 43.24604486 -238.40095945 24.41992652 -223 8 C-222.34 8 -221.68 8 -221 8 C-220.79761719 7.45601563 -220.59523437 6.91203125 -220.38671875 6.3515625 C-218.43917881 3.04897364 -215.71035052 0.8170354 -212.8125 -1.625 C-212.19101074 -2.15061523 -211.56952148 -2.67623047 -210.92919922 -3.21777344 C-150.301093 -53.56143267 -59.91945804 -48.98632557 0 0 Z M30.98510742 80.12133789 C28.85200942 83.21460545 27.82670427 85.84455165 26.73828125 89.43359375 C26.54622604 90.0560347 26.35417084 90.67847565 26.15629578 91.31977844 C25.53099382 93.3559247 24.92174382 95.39649753 24.3125 97.4375 C23.87923006 98.85804509 23.44497124 100.27828892 23.00976562 101.69824219 C21.65669742 106.12726182 20.3257192 110.5627277 19 115 C18.67464264 116.08840179 18.67464264 116.08840179 18.3427124 117.1987915 C17.70072531 119.34725044 17.05931215 121.49588009 16.41796875 123.64453125 C16.21254959 124.33191879 16.00713043 125.01930634 15.79548645 125.7275238 C14.81283228 129.01743908 13.83501422 132.30860303 12.8684082 135.60327148 C12.5199585 136.78091064 12.17150879 137.9585498 11.8125 139.171875 C11.50957031 140.2040918 11.20664062 141.23630859 10.89453125 142.29980469 C9.41852965 146.75520254 8.48578183 149.1188687 4.21875 151.296875 C3.46400391 151.69398682 2.70925781 152.09109863 1.93164062 152.50024414 C0.72797852 153.11887329 0.72797852 153.11887329 -0.5 153.75 C-7.63769845 157.56844368 -13.93965199 161.59049922 -20 167 C-20.8146875 167.68449219 -21.629375 168.36898437 -22.46875 169.07421875 C-30.36512225 175.86168687 -37.31348386 183.43311374 -42.6875 192.37109375 C-43.14648682 193.12648438 -43.60547363 193.881875 -44.07836914 194.66015625 C-44.95689836 196.13220952 -45.80976412 197.6200223 -46.63061523 199.125 C-50.44691165 205.55434409 -55.14666448 207.46160596 -62 210 C-63.54270174 210.58864429 -65.08507519 211.17814933 -66.62719727 211.76831055 C-72.09132939 213.84300611 -77.57595358 215.86049319 -83.0625 217.875 C-89.49619469 220.2442797 -95.92692667 222.62126599 -102.35137939 225.01550293 C-104.1158541 225.67136137 -105.88160603 226.32379391 -107.64862061 226.97277832 C-110.14350195 227.89063157 -112.63273784 228.82243766 -115.12109375 229.7578125 C-116.23170921 230.16131424 -116.23170921 230.16131424 -117.36476135 230.57296753 C-122.19172328 232.40959949 -125.54573331 234.34810192 -128.0625 238.9375 C-127.9782953 241.71625499 -126.72136364 242.83237353 -124.76538086 244.69506836 C-121.0363549 247.45148431 -116.57780901 248.75670556 -112.25 250.3125 C-109.93602957 251.18314644 -107.62224078 252.05427576 -105.30859375 252.92578125 C-100.83971412 254.59164587 -96.36237559 256.23332439 -91.87939453 257.86083984 C-87.26874237 259.53663048 -82.6714691 261.24598326 -78.07922363 262.9715271 C-76.24720942 263.6525409 -74.41068056 264.32154083 -72.56970215 264.97793579 C-53.98580467 271.61115928 -53.98580467 271.61115928 -49 282 C-48.33871094 283.02351562 -47.67742187 284.04703125 -46.99609375 285.1015625 C-46.48175781 285.93429687 -45.96742188 286.76703125 -45.4375 287.625 C-41.11856293 294.60764103 -41.11856293 294.60764103 -36 301 C-35.34 301 -34.68 301 -34 301 C-33.72542969 301.59683594 -33.45085937 302.19367188 -33.16796875 302.80859375 C-26.7860486 314.78269812 -10.38193775 323.28450273 1.36474609 328.91943359 C2.04230957 329.25281738 2.71987305 329.58620117 3.41796875 329.9296875 C4.31165161 330.35096924 4.31165161 330.35096924 5.22338867 330.78076172 C11.50143573 335.08920847 12.76370918 341.83545532 14.75 348.765625 C15.08999023 349.91359558 15.42998047 351.06156616 15.78027344 352.24432373 C16.86443339 355.90977247 17.93325366 359.57944908 19 363.25 C20.0685893 366.90567484 21.14058374 370.56025567 22.21972656 374.21282959 C22.88971831 376.48258539 23.55347538 378.75419409 24.20996094 381.02789307 C26.67945465 391.81383037 26.67945465 391.81383037 32.90332031 400.25274658 C36.16961477 401.4168489 38.67998742 400.78473025 42 400 C44.76075637 397.83277903 45.66139698 395.70679484 46.69140625 392.3984375 C46.99143555 391.44888184 47.29146484 390.49932617 47.60058594 389.52099609 C47.91801758 388.48281738 48.23544922 387.44463867 48.5625 386.375 C48.9018457 385.29428223 49.24119141 384.21356445 49.59082031 383.10009766 C51.65151569 376.49975157 53.63665922 369.87816717 55.60546875 363.25 C56.04931809 361.76250877 56.49324695 360.27504126 56.93725586 358.78759766 C57.80213979 355.88938474 58.65397227 352.98775894 59.49829102 350.08349609 C64.46727364 333.16855614 64.46727364 333.16855614 71.125 329.4453125 C72.74249122 328.65629239 74.36795879 327.88346691 76 327.125 C98.86726068 315.73777325 114.478439 298.04675358 127.33203125 276.3046875 C130.62533184 271.75422532 134.60193356 269.50932282 139.8203125 267.66015625 C140.97942139 267.24314453 142.13853027 266.82613281 143.33276367 266.39648438 C143.94977142 266.17951904 144.56677917 265.96255371 145.20248413 265.73901367 C147.15836575 265.05075893 149.1095053 264.35036435 151.05981445 263.64648438 C153.86914609 262.63322489 156.67984886 261.62392435 159.49169922 260.61767578 C166.61954108 258.06348192 173.73433881 255.4741533 180.84051514 252.86032104 C183.16159237 252.00949682 185.4861968 251.16885132 187.81103516 250.32836914 C189.24271563 249.80279768 190.6742034 249.2767009 192.10546875 248.75 C192.7603981 248.51603012 193.41532745 248.28206024 194.09010315 248.04100037 C197.31867426 246.84008859 199.9398038 245.840511 202 243 C202.4994241 239.6467239 202.6009108 237.8227745 200.57104492 235.04345703 C196.86930113 232.10132471 192.85623274 230.80392731 188.42578125 229.2421875 C187.47701111 228.8974942 186.52824097 228.5528009 185.55072021 228.19766235 C183.52296022 227.46187539 181.49346941 226.73084401 179.46243286 226.00415039 C176.30337794 224.87173003 173.15078685 223.722904 169.99975586 222.56835938 C162.50471522 219.82233485 155.00730254 217.08292072 147.49804688 214.37597656 C144.00748948 213.11535426 140.53404816 211.81214553 137.0625 210.5 C136.10835205 210.16468262 135.1542041 209.82936523 134.17114258 209.48388672 C127.35468169 206.85882009 123.93946284 203.07200726 120 197 C119.37351562 196.04351562 118.74703125 195.08703125 118.1015625 194.1015625 C117.61429688 193.28429687 117.12703125 192.46703125 116.625 191.625 C110.96088654 182.57762414 104.38482656 174.6211732 96 168 C94.74509766 166.97326172 94.74509766 166.97326172 93.46484375 165.92578125 C88.91709421 162.34137893 84.51506009 159.19467593 79.3671875 156.5546875 C78.5632959 156.13872314 77.7594043 155.72275879 76.93115234 155.29418945 C75.34949208 154.49287633 73.7536135 153.71884059 72.14306641 152.97729492 C66.69904817 150.22795282 64.70664705 147.51386894 62.78857422 141.74633789 C62.39822998 140.38690063 62.39822998 140.38690063 62 139 C61.7333252 138.11497803 61.46665039 137.22995605 61.19189453 136.31811523 C60.35869976 133.45091497 59.58180861 130.57246569 58.8125 127.6875 C56.29217894 118.50038792 53.6797569 109.34684292 50.89779663 100.23574829 C50.32379204 98.34960496 49.76005661 96.4603462 49.1965332 94.57104492 C46.65709428 86.24031323 46.65709428 86.24031323 42 79 C40.10231241 78.00469206 40.10231241 78.00469206 38 78 C37.175 77.87625 36.35 77.7525 35.5 77.625 C32.80793489 77.76684406 32.80793489 77.76684406 30.98510742 80.12133789 Z " fill="#F6DDDF" transform="translate(475,273)"/>
<path d="M0 0 C0.66 0 1.32 0 2 0 C2.35191406 0.89460938 2.70382812 1.78921875 3.06640625 2.7109375 C13.36803599 27.94051633 31.49416485 41.64410774 56 52 C52.93707928 53.61740967 49.7757528 54.90517203 46.56860352 56.20654297 C27.00848807 64.30022463 12.85285124 78.18849503 4.5625 97.6875 C3.69852506 99.78765841 2.84074627 101.89043517 2 104 C1.34 104 0.68 104 0 104 C-0.3403125 103.11699219 -0.680625 102.23398437 -1.03125 101.32421875 C-9.97537529 79.17799363 -26.27713506 64.47406883 -48 55 C-50.32035012 54.24864309 -52.63798064 53.61526553 -55 53 C-52.46772592 49.95430953 -49.89863296 49.11051899 -46.1875 47.875 C-40.88938258 45.91931907 -36.29490312 43.57603021 -31.5625 40.5 C-30.99619873 40.13245605 -30.42989746 39.76491211 -29.84643555 39.38623047 C-23.50651945 35.15338488 -18.23864874 30.540579 -13.5625 24.5625 C-13.09021973 23.96139404 -12.61793945 23.36028809 -12.13134766 22.7409668 C-6.89151342 15.85664998 -2.74157588 8.22472765 0 0 Z " fill="#F6DDDE" transform="translate(511,460)"/>
<path d="M0 0 C0.66 0.33 1.32 0.66 2 1 C1.36191406 1.55429687 0.72382812 2.10859375 0.06640625 2.6796875 C-0.75988281 3.40414062 -1.58617187 4.12859375 -2.4375 4.875 C-3.26121094 5.59429688 -4.08492187 6.31359375 -4.93359375 7.0546875 C-7.05982155 8.83238745 -7.05982155 8.83238745 -8 11 C-9.32 10.67 -10.64 10.34 -12 10 C-8.87528524 6.69673011 -5.9471614 4.2402808 -2 2 C-1.34 1.34 -0.68 0.68 0 0 Z " fill="#F3D7D7" transform="translate(683,636)"/>
<path d="M0 0 C0.33 0.99 0.66 1.98 1 3 C-0.40445835 5.2636564 -2.1967913 7.0208685 -4 9 C-4 5.28703828 -2.65223411 2.65223411 0 0 Z " fill="#F3D7D7" transform="translate(739,577)"/>
<path d="" fill="#EED6D7" transform="translate(0,0)"/>
<path d="" fill="#F9E0E2" transform="translate(0,0)"/>
<path d="M0 0 C3 1 3 1 3 1 Z " fill="#F0D7D9" transform="translate(371,232)"/>
<path d="" fill="#EFDADB" transform="translate(0,0)"/>
<path d="" fill="#F1D9DB" transform="translate(0,0)"/>
<path d="" fill="#EFD6D8" transform="translate(0,0)"/>
<path d="" fill="#F7E1E1" transform="translate(0,0)"/>
<path d="" fill="#F7DFE2" transform="translate(0,0)"/>
<path d="" fill="#F6E0E2" transform="translate(0,0)"/>
<path d="" fill="#656565" transform="translate(0,0)"/>
<path d="" fill="#EAD2D2" transform="translate(0,0)"/>
<path d="" fill="#EFD5D9" transform="translate(0,0)"/>
<path d="" fill="#F1D8DB" transform="translate(0,0)"/>
<path d="" fill="#F1DADD" transform="translate(0,0)"/>
<path d="" fill="#EFD7DB" transform="translate(0,0)"/>
<path d="" fill="#F1D8DA" transform="translate(0,0)"/>
<path d="" fill="#F0D8DA" transform="translate(0,0)"/>
<path d="" fill="#F7E0DF" transform="translate(0,0)"/>
<path d="" fill="#F1DADA" transform="translate(0,0)"/>
<path d="" fill="#F0D8DB" transform="translate(0,0)"/>
<path d="" fill="#F0D6D7" transform="translate(0,0)"/>
<path d="" fill="#EDD7D9" transform="translate(0,0)"/>
<path d="" fill="#EFD7DA" transform="translate(0,0)"/>
<path d="" fill="#F0D8DB" transform="translate(0,0)"/>
<path d="" fill="#F6DFE0" transform="translate(0,0)"/>
<path d="" fill="#F5DDDE" transform="translate(0,0)"/>
<path d="" fill="#F0D6D9" transform="translate(0,0)"/>
<path d="" fill="#F0D9DC" transform="translate(0,0)"/>
<path d="" fill="#EFD6DA" transform="translate(0,0)"/>
<path d="" fill="#EED7DA" transform="translate(0,0)"/>
<path d="" fill="#F6E0E2" transform="translate(0,0)"/>
<path d="" fill="#F6E1DF" transform="translate(0,0)"/>
<path d="" fill="#EDD5D8" transform="translate(0,0)"/>
<path d="" fill="#EDD8D9" transform="translate(0,0)"/>
<path d="" fill="#EFD7DA" transform="translate(0,0)"/>
<path d="" fill="#F6DEE1" transform="translate(0,0)"/>
<path d="" fill="#F7E0E2" transform="translate(0,0)"/>
<path d="" fill="#F4DEE0" transform="translate(0,0)"/>
<path d="" fill="#F5DDDE" transform="translate(0,0)"/>
<path d="" fill="#F8DEDF" transform="translate(0,0)"/>
<path d="" fill="#F6DFDF" transform="translate(0,0)"/>
<path d="" fill="#F0DADA" transform="translate(0,0)"/>
<path d="" fill="#F0D9DA" transform="translate(0,0)"/>
<path d="" fill="#F1DADC" transform="translate(0,0)"/>
<path d="" fill="#EFDADB" transform="translate(0,0)"/>
<path d="" fill="#F8DFE1" transform="translate(0,0)"/>
<path d="" fill="#F8DFE3" transform="translate(0,0)"/>
<path d="" fill="#F0D9DC" transform="translate(0,0)"/>
<path d="" fill="#F6DEDF" transform="translate(0,0)"/>
<path d="" fill="#F7DFE1" transform="translate(0,0)"/>
<path d="" fill="#F7DFE0" transform="translate(0,0)"/>
<path d="" fill="#F8DFE1" transform="translate(0,0)"/>
<path d="" fill="#F7E1E2" transform="translate(0,0)"/>
<path d="" fill="#EED7D8" transform="translate(0,0)"/>
<path d="" fill="#F4DDE2" transform="translate(0,0)"/>
<path d="" fill="#EBD4D5" transform="translate(0,0)"/>
<path d="" fill="#F4D9DA" transform="translate(0,0)"/>
<path d="" fill="#EFD7D9" transform="translate(0,0)"/>
<path d="" fill="#EFD8D9" transform="translate(0,0)"/>
<path d="" fill="#EED7D8" transform="translate(0,0)"/>
<path d="" fill="#EFDADA" transform="translate(0,0)"/>
<path d="" fill="#EDD4D5" transform="translate(0,0)"/>
<path d="" fill="#EDD5D8" transform="translate(0,0)"/>
<path d="" fill="#EED7D7" transform="translate(0,0)"/>
<path d="" fill="#EDD6D8" transform="translate(0,0)"/>
<path d="" fill="#F0D8D9" transform="translate(0,0)"/>
</svg>
