<?xml version="1.0" encoding="UTF-8"?>
<svg version="1.1" xmlns="http://www.w3.org/2000/svg" width="616" height="550">
<path d="M0 0 C0.83620377 -0.00570007 1.67240753 -0.01140015 2.53395081 -0.01727295 C4.29793049 -0.0266681 6.06192729 -0.03323493 7.82592773 -0.03710938 C10.46566253 -0.04673554 13.1045905 -0.0777784 15.74414062 -0.109375 C30.40193206 -0.20192719 44.16679661 1.581197 58.19140625 6.015625 C59.02994141 6.27641846 59.86847656 6.53721191 60.73242188 6.8059082 C82.33174022 13.64939932 101.47504023 23.92046506 119.06640625 38.203125 C119.65534668 38.67782227 120.24428711 39.15251953 120.85107422 39.64160156 C130.54361468 47.50100535 139.50584446 55.99302894 147.59375 65.51171875 C150.67817264 69.13608768 150.67817264 69.13608768 154.94140625 71.078125 C158.83439841 71.23384469 159.90647895 70.44773129 163.06640625 68.203125 C165.20123867 66.17746014 167.1666427 64.01993636 169.12890625 61.828125 C169.64517578 61.26351562 170.16144531 60.69890625 170.69335938 60.1171875 C172.95442037 57.62858024 175.12882582 55.12439251 177.21875 52.48828125 C180.105209 48.91834782 183.56766864 46.15608253 187.06640625 43.203125 C187.94425781 42.43742187 188.82210938 41.67171875 189.7265625 40.8828125 C217.04433069 17.42556337 253.07846796 0.20501704 289.61328125 0 C290.82930023 -0.00855011 290.82930023 -0.00855011 292.06988525 -0.01727295 C293.78437008 -0.02668033 295.49887264 -0.03323989 297.21337891 -0.03710938 C299.76759997 -0.0466919 302.32097148 -0.07770326 304.875 -0.109375 C320.27464824 -0.21008591 335.40118129 1.40206898 350.06640625 6.328125 C350.97519531 6.6267041 351.88398438 6.9252832 352.8203125 7.23291016 C381.70232794 17.04938098 408.32569674 35.04418315 427.06640625 59.203125 C427.93535998 60.29493825 428.80517775 61.3860643 429.67578125 62.4765625 C433.97368489 67.90670106 437.99536144 73.28660605 441.12890625 79.49609375 C442.06381254 81.38679853 442.06381254 81.38679853 444.06640625 83.203125 C455.76035788 106.01884715 464.05407637 132.35300701 464.3046875 158.109375 C464.31452667 158.94328766 464.32436584 159.77720032 464.33450317 160.63638306 C464.77527847 207.70211838 453.15095928 252.01829712 426.06640625 291.203125 C425.40640625 292.18410156 424.74640625 293.16507812 424.06640625 294.17578125 C415.35433579 306.97941337 406.02434438 319.34272365 396.06640625 331.203125 C395.19526546 332.24996085 394.32417387 333.29683766 393.453125 334.34375 C387.68816603 341.24338951 381.74166498 347.94328192 375.61878967 354.52949524 C374.11212716 356.15383314 372.61163014 357.78366595 371.11206055 359.41455078 C362.18227956 369.0916339 352.96403656 378.46019169 343.64160156 387.75830078 C341.170046 390.22443842 338.70395921 392.69595604 336.23828125 395.16796875 C334.64224802 396.76334197 333.04590505 398.35840539 331.44921875 399.953125 C330.72509796 400.67927002 330.00097717 401.40541504 329.25491333 402.15356445 C325.2288179 406.16139897 321.10470095 409.99193023 316.802948 413.70239258 C314.84423336 415.39512848 312.94550312 417.14134683 311.06640625 418.921875 C310.40640625 419.54449219 309.74640625 420.16710937 309.06640625 420.80859375 C308.40640625 421.43378906 307.74640625 422.05898438 307.06640625 422.703125 C302.43433258 427.09092916 297.75068068 431.39006261 292.93261719 435.57324219 C290.30973299 437.86397674 287.75113939 440.21693072 285.19140625 442.578125 C277.91568712 449.2717866 270.58428926 455.8972269 263.12890625 462.390625 C260.75676196 464.47523664 258.4108456 466.58741144 256.06640625 468.703125 C250.73077988 473.51327301 245.35053744 478.26292737 239.87890625 482.91796875 C234.12375593 487.81887027 228.41736769 492.74497514 222.87890625 497.890625 C218.33186638 502.11389345 213.61504938 506.06641224 208.78125 509.95703125 C205.9596713 512.2914309 203.26049913 514.72303098 200.56640625 517.203125 C196.17797451 521.23775107 191.66053825 525.04192436 187.01953125 528.78125 C184.24125207 531.05973293 181.52479869 533.39314228 178.81640625 535.75341797 C161.84051113 550.5021415 161.84051113 550.5021415 155.50390625 551.015625 C146.25613534 550.14410732 139.04481156 541.78842949 132.33203125 536 C129.41502676 533.48746852 126.43945368 531.05619465 123.44140625 528.640625 C118.73067221 524.81059341 114.26155507 520.76438336 109.796875 516.65234375 C107.22180742 514.34251918 104.58386262 512.17069487 101.87890625 510.015625 C96.38899284 505.58928455 91.3079153 500.78825952 86.1940918 495.9362793 C80.69789338 490.74213419 75.02451833 485.80265005 69.25390625 480.91796875 C65.53585258 477.7680746 61.92281396 474.5067778 58.3125 471.234375 C53.99486156 467.32972807 49.67813569 463.44549977 45.06640625 459.890625 C44.40640625 459.33375 43.74640625 458.776875 43.06640625 458.203125 C43.06640625 457.543125 43.06640625 456.883125 43.06640625 456.203125 C42.47633789 455.9352417 41.88626953 455.6673584 41.27832031 455.39135742 C39.04456167 454.19139017 37.503672 452.93700487 35.67578125 451.19140625 C35.04800781 450.59779297 34.42023438 450.00417969 33.7734375 449.39257812 C32.80470703 448.46348633 32.80470703 448.46348633 31.81640625 447.515625 C27.31090918 443.22664978 22.75572992 439.03325622 18.05761719 434.95581055 C14.73714734 432.03309683 11.53049666 428.99175638 8.31640625 425.953125 C3.50757759 421.42598504 -1.30896816 416.90942753 -6.18359375 412.453125 C-7.08086182 411.63271729 -7.97812988 410.81230957 -8.90258789 409.96704102 C-10.80179252 408.23257949 -12.70695194 406.50561798 -14.61694336 404.78295898 C-22.09174189 398.00754913 -29.29650093 390.99545649 -36.41723633 383.84985352 C-38.25814083 382.00354254 -40.10439647 380.16270227 -41.95117188 378.32226562 C-47.2751965 373.00123715 -52.54582249 367.69028631 -57.42749023 361.9543457 C-60.11221629 358.83268255 -62.97714509 355.87860386 -65.80859375 352.890625 C-71.4674684 346.86685384 -76.77905987 340.66578429 -81.93359375 334.203125 C-82.92505243 333.00092638 -83.91869204 331.80052433 -84.9140625 330.6015625 C-98.3723721 314.34309241 -110.07979308 297.29784752 -120.93359375 279.203125 C-121.34464355 278.5229834 -121.75569336 277.8428418 -122.17919922 277.14208984 C-127.93359375 267.60801925 -127.93359375 267.60801925 -127.93359375 265.203125 C-128.59359375 264.873125 -129.25359375 264.543125 -129.93359375 264.203125 C-130.86767578 262.24316406 -130.86767578 262.24316406 -131.81640625 259.71875 C-133.11645179 256.32973212 -134.43884755 252.96374428 -135.86328125 249.625 C-155.45597392 202.91773086 -158.52928401 149.67946163 -139.59765625 102.18359375 C-131.05174618 81.44916986 -119.3345532 62.62305152 -103.93359375 46.203125 C-103.27359375 46.203125 -102.61359375 46.203125 -101.93359375 46.203125 C-101.73121094 45.65914062 -101.52882812 45.11515625 -101.3203125 44.5546875 C-99.37277256 41.25209864 -96.64394427 39.0201604 -93.74609375 36.578125 C-93.12460449 36.05250977 -92.50311523 35.52689453 -91.86279297 34.98535156 C-66.28656192 13.74765933 -33.4616801 0.18224069 0 0 Z M150.05151367 118.32446289 C147.91841567 121.41773045 146.89311052 124.04767665 145.8046875 127.63671875 C145.61263229 128.2591597 145.42057709 128.88160065 145.22270203 129.52290344 C144.59740007 131.5590497 143.98815007 133.59962253 143.37890625 135.640625 C142.94563631 137.06117009 142.51137749 138.48141392 142.07617188 139.90136719 C140.72310367 144.33038682 139.39212545 148.7658527 138.06640625 153.203125 C137.74104889 154.29152679 137.74104889 154.29152679 137.40911865 155.4019165 C136.76713156 157.55037544 136.1257184 159.69900509 135.484375 161.84765625 C135.27895584 162.53504379 135.07353668 163.22243134 134.8618927 163.9306488 C133.87923853 167.22056408 132.90142047 170.51172803 131.93481445 173.80639648 C131.58636475 174.98403564 131.23791504 176.1616748 130.87890625 177.375 C130.57597656 178.4072168 130.27304687 179.43943359 129.9609375 180.50292969 C128.4849359 184.95832754 127.55218808 187.3219937 123.28515625 189.5 C122.53041016 189.89711182 121.77566406 190.29422363 120.99804688 190.70336914 C119.79438477 191.32199829 119.79438477 191.32199829 118.56640625 191.953125 C111.4287078 195.77156868 105.12675426 199.79362422 99.06640625 205.203125 C98.25171875 205.88761719 97.43703125 206.57210937 96.59765625 207.27734375 C88.701284 214.06481187 81.75292239 221.63623874 76.37890625 230.57421875 C75.91991943 231.32960938 75.46093262 232.085 74.98803711 232.86328125 C74.10950789 234.33533452 73.25664213 235.8231473 72.43579102 237.328125 C68.6194946 243.75746909 63.91974177 245.66473096 57.06640625 248.203125 C55.52370451 248.79176929 53.98133106 249.38127433 52.43920898 249.97143555 C46.97507686 252.04613111 41.49045267 254.06361819 36.00390625 256.078125 C29.57021156 258.4474047 23.13947958 260.82439099 16.71502686 263.21862793 C14.95055215 263.87448637 13.18480022 264.52691891 11.41778564 265.17590332 C8.9229043 266.09375657 6.43366841 267.02556266 3.9453125 267.9609375 C2.83469704 268.36443924 2.83469704 268.36443924 1.7016449 268.77609253 C-3.12531703 270.61272449 -6.47932706 272.55122692 -8.99609375 277.140625 C-8.91188905 279.91937999 -7.65495739 281.03549853 -5.69897461 282.89819336 C-1.96994865 285.65460931 2.48859724 286.95983056 6.81640625 288.515625 C9.13037668 289.38627144 11.44416547 290.25740076 13.7578125 291.12890625 C18.22669213 292.79477087 22.70403066 294.43644939 27.18701172 296.06396484 C31.79766388 297.73975548 36.39493715 299.44910826 40.98718262 301.1746521 C42.81919683 301.8556659 44.65572569 302.52466583 46.4967041 303.18106079 C65.08060158 309.81428428 65.08060158 309.81428428 70.06640625 320.203125 C70.72769531 321.22664062 71.38898438 322.25015625 72.0703125 323.3046875 C72.58464844 324.13742187 73.09898437 324.97015625 73.62890625 325.828125 C77.94784332 332.81076603 77.94784332 332.81076603 83.06640625 339.203125 C83.72640625 339.203125 84.38640625 339.203125 85.06640625 339.203125 C85.34097656 339.79996094 85.61554688 340.39679688 85.8984375 341.01171875 C92.28035765 352.98582312 108.6844685 361.48762773 120.43115234 367.12255859 C121.10871582 367.45594238 121.7862793 367.78932617 122.484375 368.1328125 C123.37805786 368.55409424 123.37805786 368.55409424 124.28979492 368.98388672 C130.56784198 373.29233347 131.83011543 380.03858032 133.81640625 386.96875 C134.15639648 388.11672058 134.49638672 389.26469116 134.84667969 390.44744873 C135.93083964 394.11289747 136.99965991 397.78257408 138.06640625 401.453125 C139.13499555 405.10879984 140.20698999 408.76338067 141.28613281 412.41595459 C141.95612456 414.68571039 142.61988163 416.95731909 143.27636719 419.23101807 C145.7458609 430.01695537 145.7458609 430.01695537 151.96972656 438.45587158 C155.23602102 439.6199739 157.74639367 438.98785525 161.06640625 438.203125 C163.82716262 436.03590403 164.72780323 433.90991984 165.7578125 430.6015625 C166.0578418 429.65200684 166.35787109 428.70245117 166.66699219 427.72412109 C166.98442383 426.68594238 167.30185547 425.64776367 167.62890625 424.578125 C167.96825195 423.49740723 168.30759766 422.41668945 168.65722656 421.30322266 C170.71792194 414.70287657 172.70306547 408.08129217 174.671875 401.453125 C175.11572434 399.96563377 175.5596532 398.47816626 176.00366211 396.99072266 C176.86854604 394.09250974 177.72037852 391.19088394 178.56469727 388.28662109 C183.53367989 371.37168114 183.53367989 371.37168114 190.19140625 367.6484375 C191.80889747 366.85941739 193.43436504 366.08659191 195.06640625 365.328125 C217.93366693 353.94089825 233.54484525 336.24987858 246.3984375 314.5078125 C249.69173809 309.95735032 253.66833981 307.71244782 258.88671875 305.86328125 C260.04582764 305.44626953 261.20493652 305.02925781 262.39916992 304.59960938 C263.01617767 304.38264404 263.63318542 304.16567871 264.26889038 303.94213867 C266.224772 303.25388393 268.17591155 302.55348935 270.1262207 301.84960938 C272.93555234 300.83634989 275.74625511 299.82704935 278.55810547 298.82080078 C285.68594733 296.26660692 292.80074506 293.6772783 299.90692139 291.06344604 C302.22799862 290.21262182 304.55260305 289.37197632 306.87744141 288.53149414 C308.30912188 288.00592268 309.74060965 287.4798259 311.171875 286.953125 C311.82680435 286.71915512 312.4817337 286.48518524 313.1565094 286.24412537 C316.38508051 285.04321359 319.00621005 284.043636 321.06640625 281.203125 C321.56583035 277.8498489 321.66731705 276.0258995 319.63745117 273.24658203 C315.93570738 270.30444971 311.92263899 269.00705231 307.4921875 267.4453125 C306.54341736 267.1006192 305.59464722 266.7559259 304.61712646 266.40078735 C302.58936647 265.66500039 300.55987566 264.93396901 298.52883911 264.20727539 C295.36978419 263.07485503 292.2171931 261.926029 289.06616211 260.77148438 C281.57112147 258.02545985 274.07370879 255.28604572 266.56445312 252.57910156 C263.07389573 251.31847926 259.60045441 250.01527053 256.12890625 248.703125 C255.1747583 248.36780762 254.22061035 248.03249023 253.23754883 247.68701172 C246.42108794 245.06194509 243.00586909 241.27513226 239.06640625 235.203125 C238.43992187 234.24664062 237.8134375 233.29015625 237.16796875 232.3046875 C236.68070313 231.48742187 236.1934375 230.67015625 235.69140625 229.828125 C230.02729279 220.78074914 223.45123281 212.8242982 215.06640625 206.203125 C213.81150391 205.17638672 213.81150391 205.17638672 212.53125 204.12890625 C207.98350046 200.54450393 203.58146634 197.39780093 198.43359375 194.7578125 C197.62970215 194.34184814 196.82581055 193.92588379 195.99755859 193.49731445 C194.41589833 192.69600133 192.82001975 191.92196559 191.20947266 191.18041992 C185.76545442 188.43107782 183.7730533 185.71699394 181.85498047 179.94946289 C181.46463623 178.59002563 181.46463623 178.59002563 181.06640625 177.203125 C180.79973145 176.31810303 180.53305664 175.43308105 180.25830078 174.52124023 C179.42510601 171.65403997 178.64821486 168.77559069 177.87890625 165.890625 C175.35858519 156.70351292 172.74616315 147.54996792 169.96420288 138.43887329 C169.39019829 136.55272996 168.82646286 134.6634712 168.26293945 132.77416992 C165.72350053 124.44343823 165.72350053 124.44343823 161.06640625 117.203125 C159.16871866 116.20781706 159.16871866 116.20781706 157.06640625 116.203125 C156.24140625 116.079375 155.41640625 115.955625 154.56640625 115.828125 C151.87434114 115.96996906 151.87434114 115.96996906 150.05151367 118.32446289 Z " fill="#F6DDDF" transform="translate(151.93359375,-0.203125)"/>
<path d="M0 0 C0.66 0 1.32 0 2 0 C2.35191406 0.89460937 2.70382812 1.78921875 3.06640625 2.7109375 C13.36803599 27.94051633 31.49416485 41.64410774 56 52 C52.93707928 53.61740967 49.7757528 54.90517203 46.56860352 56.20654297 C27.00848807 64.30022463 12.85285124 78.18849503 4.5625 97.6875 C3.69852506 99.78765841 2.84074627 101.89043517 2 104 C1.34 104 0.68 104 0 104 C-0.3403125 103.11699219 -0.680625 102.23398437 -1.03125 101.32421875 C-9.97537529 79.17799363 -26.27713506 64.47406883 -48 55 C-50.32035012 54.24864309 -52.63798064 53.61526553 -55 53 C-52.46772592 49.95430953 -49.89863296 49.11051899 -46.1875 47.875 C-40.88938258 45.91931907 -36.29490312 43.57603021 -31.5625 40.5 C-30.99619873 40.13245605 -30.42989746 39.76491211 -29.84643555 39.38623047 C-23.50651945 35.15338488 -18.23864874 30.540579 -13.5625 24.5625 C-13.09021973 23.96139404 -12.61793945 23.36028809 -12.13134766 22.7409668 C-6.89151342 15.85664998 -2.74157588 8.22472765 0 0 Z " fill="#F6DDDE" transform="translate(307,225)"/>
<path d="M0 0 C0.66 0.33 1.32 0.66 2 1 C1.36191406 1.55429687 0.72382813 2.10859375 0.06640625 2.6796875 C-0.75988281 3.40414063 -1.58617187 4.12859375 -2.4375 4.875 C-3.26121094 5.59429687 -4.08492188 6.31359375 -4.93359375 7.0546875 C-7.05982155 8.83238745 -7.05982155 8.83238745 -8 11 C-9.32 10.67 -10.64 10.34 -12 10 C-8.87528524 6.69673011 -5.9471614 4.2402808 -2 2 C-1.34 1.34 -0.68 0.68 0 0 Z " fill="#F3D7D7" transform="translate(479,401)"/>
<path d="M0 0 C0.33 0.99 0.66 1.98 1 3 C-0.40445835 5.2636564 -2.1967913 7.0208685 -4 9 C-4 5.28703828 -2.65223411 2.65223411 0 0 Z " fill="#F3D7D7" transform="translate(535,342)"/>
<path d="" fill="#F9E0E2" transform="translate(0,0)"/>
<path d="" fill="#EFDADB" transform="translate(0,0)"/>
<path d="" fill="#F1D9DB" transform="translate(0,0)"/>
<path d="" fill="#F7E1E1" transform="translate(0,0)"/>
<path d="" fill="#F7DFE2" transform="translate(0,0)"/>
<path d="" fill="#F6E0E2" transform="translate(0,0)"/>
<path d="" fill="#EAD2D2" transform="translate(0,0)"/>
<path d="" fill="#EFD5D9" transform="translate(0,0)"/>
<path d="" fill="#F1D8DB" transform="translate(0,0)"/>
<path d="" fill="#F1DADD" transform="translate(0,0)"/>
<path d="" fill="#EFD7DB" transform="translate(0,0)"/>
<path d="" fill="#F1D8DA" transform="translate(0,0)"/>
<path d="" fill="#F0D8DA" transform="translate(0,0)"/>
<path d="" fill="#F7E0DF" transform="translate(0,0)"/>
<path d="" fill="#F1DADA" transform="translate(0,0)"/>
<path d="" fill="#F0D8DB" transform="translate(0,0)"/>
<path d="" fill="#F0D6D7" transform="translate(0,0)"/>
<path d="" fill="#EDD7D9" transform="translate(0,0)"/>
<path d="" fill="#EFD7DA" transform="translate(0,0)"/>
<path d="" fill="#F0D8DB" transform="translate(0,0)"/>
<path d="" fill="#F6DFE0" transform="translate(0,0)"/>
<path d="" fill="#F5DDDE" transform="translate(0,0)"/>
<path d="" fill="#F0D6D9" transform="translate(0,0)"/>
<path d="" fill="#F0D9DC" transform="translate(0,0)"/>
<path d="" fill="#EFD6DA" transform="translate(0,0)"/>
<path d="" fill="#EED7DA" transform="translate(0,0)"/>
<path d="" fill="#F6E0E2" transform="translate(0,0)"/>
<path d="" fill="#F6E1DF" transform="translate(0,0)"/>
<path d="" fill="#EDD5D8" transform="translate(0,0)"/>
<path d="" fill="#EDD8D9" transform="translate(0,0)"/>
<path d="" fill="#EFD7DA" transform="translate(0,0)"/>
<path d="" fill="#F6DEE1" transform="translate(0,0)"/>
<path d="" fill="#F7E0E2" transform="translate(0,0)"/>
<path d="" fill="#F4DEE0" transform="translate(0,0)"/>
<path d="" fill="#F5DDDE" transform="translate(0,0)"/>
<path d="" fill="#F8DEDF" transform="translate(0,0)"/>
<path d="" fill="#F6DFDF" transform="translate(0,0)"/>
<path d="" fill="#F0DADA" transform="translate(0,0)"/>
<path d="" fill="#F0D9DA" transform="translate(0,0)"/>
<path d="" fill="#F1DADC" transform="translate(0,0)"/>
<path d="" fill="#EFDADB" transform="translate(0,0)"/>
<path d="" fill="#F8DFE1" transform="translate(0,0)"/>
<path d="" fill="#F8DFE3" transform="translate(0,0)"/>
<path d="" fill="#F0D9DC" transform="translate(0,0)"/>
<path d="" fill="#F6DEDF" transform="translate(0,0)"/>
<path d="" fill="#F7DFE1" transform="translate(0,0)"/>
<path d="" fill="#F7DFE0" transform="translate(0,0)"/>
<path d="" fill="#F8DFE1" transform="translate(0,0)"/>
<path d="" fill="#F7E1E2" transform="translate(0,0)"/>
<path d="" fill="#EED7D8" transform="translate(0,0)"/>
<path d="" fill="#F4DDE2" transform="translate(0,0)"/>
<path d="" fill="#EBD4D5" transform="translate(0,0)"/>
<path d="" fill="#F4D9DA" transform="translate(0,0)"/>
<path d="" fill="#EFD7D9" transform="translate(0,0)"/>
<path d="" fill="#EFD8D9" transform="translate(0,0)"/>
<path d="" fill="#EED7D8" transform="translate(0,0)"/>
<path d="" fill="#EFDADA" transform="translate(0,0)"/>
<path d="" fill="#EDD4D5" transform="translate(0,0)"/>
<path d="" fill="#EDD5D8" transform="translate(0,0)"/>
<path d="" fill="#EED7D7" transform="translate(0,0)"/>
<path d="" fill="#EDD6D8" transform="translate(0,0)"/>
</svg>
