<?xml version="1.0" encoding="UTF-8"?>
<svg version="1.1" xmlns="http://www.w3.org/2000/svg" width="1024" height="1024">
<path d="M0 0 C1.12897705 0.0616333 1.12897705 0.0616333 2.28076172 0.12451172 C34.313296 2.03754038 62.35922914 12.27479781 89.7421875 28.65234375 C91.9280355 29.99502194 91.9280355 29.99502194 94 31 C94.58136719 31.59039062 95.16273438 32.18078125 95.76171875 32.7890625 C98.2796067 35.27619091 100.96361485 37.27506705 103.8125 39.375 C112.84730041 46.18255672 121.20296326 53.92028153 128.99609375 62.1171875 C130.29740234 63.48230469 130.29740234 63.48230469 131.625 64.875 C132.35976563 65.67679687 133.09453125 66.47859375 133.8515625 67.3046875 C135.86455167 69.19185393 135.86455167 69.19185393 138.40258789 69.30932617 C141.62283891 68.92582603 142.49940034 68.07485503 144.70703125 65.74609375 C145.37669922 65.05580078 146.04636719 64.36550781 146.73632812 63.65429688 C147.42146484 62.92275391 148.10660156 62.19121094 148.8125 61.4375 C154.00419027 56.00733975 159.26935807 50.86133205 165 46 C165.98484375 45.14535156 166.9696875 44.29070312 167.984375 43.41015625 C173.97477074 38.32508868 179.9835527 33.83205549 186.6015625 29.59375 C189.05325211 28.07847561 189.05325211 28.07847561 191 26 C195.91606122 23.17628566 200.95538317 20.58566409 206 18 C207.03769531 17.46761719 208.07539062 16.93523437 209.14453125 16.38671875 C250.19294571 -3.57260204 298.12944747 -4.6374755 341 10 C355.85903366 15.46117731 369.48716235 23.32668678 382 33 C382.84175781 33.64839844 383.68351563 34.29679687 384.55078125 34.96484375 C390.5639558 39.68747695 396.65716291 44.52075005 402 50 C402 50.66 402 51.32 402 52 C402.66 52 403.32 52 404 52 C439.56579703 90.14837565 450.40855936 138.33272886 449.0736084 188.96990967 C448.80181481 196.46586865 447.69650335 203.70488319 446 211 C445.80132324 211.86657227 445.60264648 212.73314453 445.39794922 213.62597656 C440.78717898 233.1259082 433.40435039 251.34614496 424 269 C423.62117676 269.71897461 423.24235352 270.43794922 422.85205078 271.17871094 C414.5800748 286.80091875 404.73534412 300.97448912 394 315 C392.84951172 316.53527344 392.84951172 316.53527344 391.67578125 318.1015625 C385.66370394 326.08832048 379.21660065 333.63145541 372.62158203 341.14013672 C371.06445698 342.92607147 369.52636787 344.72619149 367.99609375 346.53515625 C362.11414875 353.4870783 356.07343155 360.2425386 349.80688477 366.8515625 C347.25466897 369.54897201 344.75505614 372.2507865 342.40234375 375.125 C340.05991753 377.92829382 337.59447956 380.42893714 335 383 C333.9022146 384.10600073 332.80569636 385.21326012 331.71020508 386.3215332 C328.4499402 389.61724205 325.18370732 392.9069638 321.9152832 396.19458008 C320.50628456 397.61372129 319.09907372 399.03463964 317.69360352 400.45727539 C315.6610575 402.51394799 313.62223643 404.56420994 311.58203125 406.61328125 C310.95182571 407.25380936 310.32162018 407.89433746 309.6723175 408.55427551 C308.15237114 410.07461482 306.58073023 411.54296174 305 413 C304.34 413 303.68 413 303 413 C302.67 413.99 302.34 414.98 302 416 C301.34 416 300.68 416 300 416 C300 416.66 300 417.32 300 418 C298.53125 419.4453125 298.53125 419.4453125 296.5 421.125 C293.53322639 423.64257902 290.72425751 426.22168976 288 429 C284.89238219 432.14969387 281.67228422 435.07951907 278.3203125 437.96484375 C275.39519814 440.53047436 272.54121114 443.16797229 269.6875 445.8125 C260.18610439 454.61125984 250.63729545 463.34398572 240.78125 471.74609375 C239.58319225 472.7680638 238.3852799 473.79020431 237.1875 474.8125 C236.58147949 475.32965576 235.97545898 475.84681152 235.35107422 476.37963867 C231.60967738 479.5847653 227.93901522 482.85193729 224.3125 486.1875 C220.00204332 490.14032054 215.55199452 493.85654995 211.00390625 497.53125 C207.51283223 500.40037716 204.09635285 503.34659311 200.6875 506.3125 C199.73387573 507.14140747 199.73387573 507.14140747 198.76098633 507.98706055 C196.23631037 510.18263892 193.71266388 512.37939815 191.18945312 514.57666016 C184.30107408 520.56498304 177.3309264 526.39337833 170.11791992 531.98779297 C166.25270603 534.99098857 162.48483835 538.08673436 158.75 541.25 C143.60734154 553.90926248 143.60734154 553.90926248 137 554 C134.49249472 552.63663785 132.5277769 551.3613149 130.3125 549.625 C129.39839355 548.93978271 129.39839355 548.93978271 128.46582031 548.24072266 C123.73622263 544.66447433 119.12402542 540.93759846 114.5703125 537.140625 C112.11661962 535.09712394 109.62933107 533.10591783 107.125 531.125 C99.13772244 524.75029583 91.40301374 518.07026926 83.65673828 511.40673828 C78.75782852 507.19520638 73.84673025 503.0004783 68.875 498.875 C68.02679688 498.17117188 67.17859375 497.46734375 66.3046875 496.7421875 C64.25504795 495.19279896 62.33792533 494.0450634 60 493 C60 492.01 60 491.02 60 490 C59.46890625 489.78730469 58.9378125 489.57460938 58.390625 489.35546875 C55.07845744 487.47749139 52.49089019 484.91940702 49.75 482.3125 C48.58136958 481.21806576 47.41210155 480.12431196 46.2421875 479.03125 C45.68112305 478.5053125 45.12005859 477.979375 44.54199219 477.4375 C38.65406631 471.94856594 32.4412881 466.90406031 26.125 461.91796875 C25.42375 461.28503906 24.7225 460.65210938 24 460 C24 459.34 24 458.68 24 458 C23.41734375 457.73445313 22.8346875 457.46890625 22.234375 457.1953125 C19.93825772 455.96697004 18.19643982 454.59685061 16.25 452.875 C15.32960938 452.06675781 15.32960938 452.06675781 14.390625 451.2421875 C13.93171875 450.83226562 13.4728125 450.42234375 13 450 C13 450.66 13 451.32 13 452 C12.34 452 11.68 452 11 452 C11 450.68 11 449.36 11 448 C9.22249429 445.89958075 7.48822814 444.06647182 5.5 442.1875 C4.95190674 441.65560059 4.40381348 441.12370117 3.83911133 440.57568359 C-0.95392898 435.95641122 -5.90614943 431.54961682 -11.04296875 427.31640625 C-11.68878906 426.77886719 -12.33460938 426.24132812 -13 425.6875 C-13.86625 424.98173828 -13.86625 424.98173828 -14.75 424.26171875 C-16 423 -16 423 -16 421 C-16.55631104 420.76966064 -17.11262207 420.53932129 -17.68579102 420.30200195 C-20.63110696 418.64493159 -22.65172061 416.57222713 -25.02734375 414.16796875 C-25.49813858 413.69434402 -25.96893341 413.2207193 -26.45399475 412.73274231 C-27.9532789 411.22231245 -29.4454658 409.70508851 -30.9375 408.1875 C-31.9363829 407.17857482 -32.93572751 406.17010655 -33.93554688 405.16210938 C-35.78537161 403.29601596 -37.63187321 401.42685112 -39.47631836 399.55541992 C-43.64245657 395.33688759 -47.84659501 391.15708621 -52.0546875 386.98046875 C-53.50088274 385.54165542 -54.94659145 384.10235519 -56.39208984 382.6628418 C-57.376212 381.68374233 -58.36123062 380.70554305 -59.34716797 379.72827148 C-64.55109509 374.5686812 -69.66780215 369.38305433 -74.43505859 363.81225586 C-76.99085688 360.85255373 -79.69224523 358.03163891 -82.375 355.1875 C-87.06281196 350.17706141 -91.53592689 345.06054016 -95.828125 339.703125 C-98.15553214 336.80642402 -100.54263314 333.96611535 -102.9375 331.125 C-126.18484931 303.21383062 -145.50743922 272.53995883 -158.91357422 238.73730469 C-159.64641967 236.89086352 -160.38783869 235.04780522 -161.13720703 233.20800781 C-161.49540527 232.32725586 -161.85360352 231.44650391 -162.22265625 230.5390625 C-162.70037476 229.37044678 -162.70037476 229.37044678 -163.18774414 228.17822266 C-168.82583325 213.05858603 -170.38320189 193.99936927 -171 178 C-171.05285156 176.9171875 -171.10570312 175.834375 -171.16015625 174.71875 C-171.66366216 155.27904357 -168.63173615 135.57531168 -163 117 C-162.75266113 116.17838379 -162.50532227 115.35676758 -162.25048828 114.51025391 C-155.32341774 92.05054309 -143.90158354 73.05759578 -129 55 C-128.23816406 54.03513672 -128.23816406 54.03513672 -127.4609375 53.05078125 C-126.35386233 51.66208169 -125.18421376 50.32353303 -124 49 C-123.34 49 -122.68 49 -122 49 C-121.73832031 48.40445313 -121.47664063 47.80890625 -121.20703125 47.1953125 C-110.19043075 27.15864751 -75.48056913 13.14885506 -54.84082031 6.89501953 C-37.30000835 1.81970405 -18.29770725 -1.01533913 0 0 Z M136 118 C132.67757171 124.28741556 130.17830625 130.66726384 127.8125 137.3671875 C127.42811768 138.44195343 127.04373535 139.51671936 126.64770508 140.62405396 C125.42705523 144.03936406 124.21315772 147.45702222 123 150.875 C121.78574862 154.28543316 120.5700288 157.69533144 119.35229492 161.10452271 C118.59758245 163.21852042 117.84500489 165.33328202 117.0949707 167.44894409 C116.07756564 170.30474392 115.04464218 173.15405826 114 176 C113.65461182 176.94764221 113.30922363 177.89528442 112.95336914 178.87164307 C112.61297607 179.77009949 112.27258301 180.66855591 111.921875 181.59423828 C111.47279785 182.79199387 111.47279785 182.79199387 111.01464844 184.01394653 C109.68048693 186.62540879 107.88033189 187.75038023 105.24609375 188.95703125 C92.31687434 194.96068618 81.3351441 204.3669273 71 214 C70.23558594 214.69867188 69.47117187 215.39734375 68.68359375 216.1171875 C61.89739044 222.56113012 55.98977832 230.12791905 51.72998047 238.49438477 C48.7209013 244.19219481 46.40687038 247.09301378 40.27246094 249.21582031 C39.35754883 249.49522461 38.44263672 249.77462891 37.5 250.0625 C35.38990567 250.7856649 33.28060704 251.5111535 31.171875 252.23828125 C29.93373047 252.65287598 28.69558594 253.0674707 27.41992188 253.49462891 C18.86485361 256.38342117 10.38911396 259.5018994 1.90893555 262.60202026 C-1.2241688 263.74061276 -4.36445404 264.85744922 -7.50585938 265.97290039 C-9.46776889 266.68417388 -11.42937085 267.3962964 -13.390625 268.109375 C-14.30011902 268.42686203 -15.20961304 268.74434906 -16.14666748 269.07145691 C-20.96375607 270.84801771 -24.46285043 272.24261289 -27 277 C-27.29469617 279.19427393 -27.29469617 279.19427393 -26 281 C-23.61141077 282.53321679 -23.61141077 282.53321679 -20.453125 283.7109375 C-19.84535217 283.95854828 -19.23757935 284.20615906 -18.61138916 284.46127319 C-8.45414826 288.51742086 1.92608134 292.02269092 12.25 295.625 C15.47748781 296.75437879 18.70446065 297.88518555 21.93060303 299.0184021 C23.92214005 299.71763668 25.91447654 300.41460033 27.90777588 301.10879517 C33.34050295 303.01271901 38.68972626 305.04592765 44.00335693 307.26205444 C45.95788714 308.11555772 45.95788714 308.11555772 48 308 C48.15662109 308.82177734 48.15662109 308.82177734 48.31640625 309.66015625 C55.27732821 333.4863977 82.33430644 356.4232056 103 368 C103.65093124 368.26798401 104.30186249 368.53596802 104.97251892 368.81207275 C109.01977297 370.49742657 110.69770233 371.47247955 112.94287109 375.39038086 C113.4166779 376.73826887 113.85868429 378.09762952 114.2734375 379.46484375 C114.52382278 380.20264069 114.77420807 380.94043762 115.03218079 381.70059204 C115.84106441 384.10460966 116.60776361 386.51990508 117.375 388.9375 C117.9278053 390.60311086 118.48357971 392.26773906 119.04223633 393.93139648 C120.17220538 397.30868923 121.2867349 400.69044916 122.38818359 404.07714844 C124.52781265 410.64124479 126.77973365 417.1656345 129.04058838 423.68875122 C129.67564212 425.52815422 130.30250085 427.37038 130.92919922 429.21264648 C131.30705566 430.31938721 131.68491211 431.42612793 132.07421875 432.56640625 C132.39994873 433.52490479 132.72567871 434.48340332 133.0612793 435.47094727 C134.53253068 439.99152073 134.53253068 439.99152073 137.875 443 C140.10818039 443.21071149 140.10818039 443.21071149 141.89453125 441.59765625 C144.90249402 437.88653335 146.2112986 433.90643937 147.8125 429.4375 C148.18793945 428.43404541 148.56337891 427.43059082 148.95019531 426.39672852 C151.32098048 419.96846858 153.496229 413.50391097 155.55448914 406.97007751 C156.78229424 403.09074351 158.04656841 399.22364104 159.31210327 395.35647583 C159.9333162 393.42310145 160.53681457 391.48393819 161.12173462 389.53927612 C166.11611927 372.96054817 166.11611927 372.96054817 171.1809082 369.30859375 C174.40525775 367.58443544 177.58908086 366.29943582 181 365 C188.64671486 360.11171409 195.42186499 354.22671544 202 348 C202.69996094 347.34128906 203.39992188 346.68257812 204.12109375 346.00390625 C214.22164122 336.2183856 221.46715357 324.83016958 228.79833984 312.92602539 C231.990021 307.81038691 234.91659349 306.66564562 240.46875 304.77734375 C241.32878632 304.47544632 242.18882263 304.17354889 243.07492065 303.86250305 C244.92188602 303.21505063 246.77040926 302.57202867 248.62030029 301.9329834 C253.42372718 300.27248675 258.2149413 298.57738849 263.0078125 296.88671875 C263.95564606 296.55334503 264.90347961 296.21997131 265.8800354 295.87649536 C273.75205122 293.10303925 281.58015476 290.23378519 289.375 287.25 C290.41720703 286.85675537 291.45941406 286.46351074 292.53320312 286.05834961 C293.47873047 285.69362549 294.42425781 285.32890137 295.3984375 284.953125 C296.19942871 284.64536133 297.00041992 284.33759766 297.82568359 284.02050781 C300.17877823 282.91609106 302.04266686 281.71014276 304 280 C304.83356413 277.54412036 304.83356413 277.54412036 304 275 C299.06815869 271.04165428 293.61792288 269.22336039 287.6875 267.1875 C285.48116111 266.41319351 283.27548333 265.63700181 281.0703125 264.859375 C280.4637532 264.6463121 279.85719391 264.43324921 279.23225403 264.21372986 C273.57116312 262.21877183 267.93699098 260.15277093 262.3046875 258.078125 C261.37970963 257.73771683 260.45473175 257.39730865 259.50172424 257.04658508 C255.75022849 255.66548326 251.99899446 254.28369847 248.24935913 252.89755249 C245.59567817 251.91709496 242.94056454 250.94061155 240.28515625 249.96484375 C239.47791107 249.66527771 238.67066589 249.36571167 237.83895874 249.05706787 C234.02086132 247.54537229 234.02086132 247.54537229 230 247 C229.62681641 245.96552734 229.62681641 245.96552734 229.24609375 244.91015625 C223.95103175 232.54394562 214.74345274 222.72358985 205.34765625 213.35546875 C204.05062765 212.05412391 202.76626842 210.73807024 201.54296875 209.3671875 C193.05972833 200.02828882 180.40698872 192.17903511 169 187 C168.34 187 167.68 187 167 187 C166.82984375 186.33355469 166.6596875 185.66710937 166.484375 184.98046875 C164.95466603 179.16269261 163.19220763 173.52441514 161.0625 167.8984375 C160.22685773 165.61885455 159.44072632 163.33981155 158.6796875 161.03515625 C156.57537208 154.68260557 154.35427794 148.37209298 152.125 142.0625 C151.70347656 140.85142578 151.28195312 139.64035156 150.84765625 138.39257812 C148.34363408 131.32082133 145.56403059 124.6051716 142 118 C140.02 118 138.04 118 136 118 Z " fill="#19191A" transform="translate(373,234)"/>
<path d="M0 0 C2.91856312 2.91856312 3.51450806 6.57748836 4.6875 10.4375 C7.1578603 18.12432796 10.05295324 24.54400847 15 31 C15.3825293 31.51369141 15.76505859 32.02738281 16.15917969 32.55664062 C25.68872888 45.21764924 40.05545974 57.66886365 56 61 C56 61.66 56 62.32 56 63 C55.47680176 63.23074219 54.95360352 63.46148438 54.41455078 63.69921875 C42.61172223 68.95530786 32.65787333 74.21161066 23.5 83.5 C22.675 84.325 21.85 85.15 21 86 C20.34 86 19.68 86 19 86 C18.73703125 86.56976562 18.4740625 87.13953125 18.203125 87.7265625 C16.91847651 90.15404764 15.40797952 92.18676577 13.75 94.375 C7.64510001 102.98545269 4.10995004 112.97904987 1 123 C-1.09742073 119.85386891 -2.01633166 117.14795392 -3.1875 113.5625 C-9.12116736 96.4616618 -19.87035823 83.79617093 -35 74 C-35.92683594 73.39929688 -36.85367187 72.79859375 -37.80859375 72.1796875 C-42.55400978 68.98094987 -42.55400978 68.98094987 -48 68 C-48 67.34 -48 66.68 -48 66 C-48.94875 65.71125 -49.8975 65.4225 -50.875 65.125 C-54 64 -54 64 -56 62 C-54.99582031 61.52691406 -53.99164063 61.05382812 -52.95703125 60.56640625 C-30.15026118 49.62857998 -12.24643034 35.21684137 -3 11 C-1.87150491 7.36071663 -0.88179546 3.70640857 0 0 Z " fill="#1B1B1B" transform="translate(511,450)"/>
<path d="M0 0 C0 0.33 0 0.66 0 1 C-4.23260683 1.69260839 -7.79173912 2.06865276 -12.04882812 1.51367188 C-16.99740662 0.9430825 -21.87098395 0.87213816 -26.84765625 0.90234375 C-28.19361122 0.90446617 -28.19361122 0.90446617 -29.5667572 0.90663147 C-32.39870714 0.9121749 -35.23057445 0.92471642 -38.0625 0.9375 C-39.99674364 0.94252233 -41.93098853 0.94708394 -43.86523438 0.95117188 C-48.57685417 0.96212571 -53.28841313 0.97935047 -58 1 C-44.20017019 -8.19988654 -15.52740837 -3.30028666 0 0 Z " fill="#1F1E1D" transform="translate(400,237)"/>
<path d="M0 0 C0.33 0 0.66 0 1 0 C1.33 3.96 1.66 7.92 2 12 C1.67 12 1.34 12 1 12 C1 22.89 1 33.78 1 45 C1.33 45 1.66 45 2 45 C2.33923576 47.35344806 2.67150534 49.7075484 3 52.0625 C3.09539062 52.71927734 3.19078125 53.37605469 3.2890625 54.05273438 C3.88887674 58.40138763 4.09127093 62.61329071 4 67 C3.01 67.495 3.01 67.495 2 68 C-1.90859828 44.94172839 -2.64091408 23.22589611 0 0 Z " fill="#3B3A3A" transform="translate(204,377)"/>
<path d="M0 0 C0 0.33 0 0.66 0 1 C-2.64 1.33 -5.28 1.66 -8 2 C-8 2.33 -8 2.66 -8 3 C-22.52 3 -37.04 3 -52 3 C-52 2.67 -52 2.34 -52 2 C-34.46462719 -0.82209906 -17.68663161 -1.0785128 0 0 Z " fill="#242423" transform="translate(674,235)"/>
<path d="M0 0 C5.44876003 1.72066106 10.71169451 3.84705349 16 6 C16 6.66 16 7.32 16 8 C14.54618103 8.69699552 13.08677047 9.38233866 11.625 10.0625 C10.81289063 10.44535156 10.00078125 10.82820312 9.1640625 11.22265625 C8.44992187 11.47917969 7.73578125 11.73570312 7 12 C6.34 11.67 5.68 11.34 5 11 C5.33 9.68 5.66 8.36 6 7 C5.195625 6.401875 4.39125 5.80375 3.5625 5.1875 C1 3 1 3 0 0 Z " fill="#313030" transform="translate(551,505)"/>
<path d="M0 0 C0.33 0 0.66 0 1 0 C1.33 1.98 1.66 3.96 2 6 C2.33 6 2.66 6 3 6 C3.33923576 8.35344806 3.67150534 10.7075484 4 13.0625 C4.09539062 13.71927734 4.19078125 14.37605469 4.2890625 15.05273438 C4.88887674 19.40138763 5.09127093 23.61329071 5 28 C4.34 28.33 3.68 28.66 3 29 C-0.44419134 9.03189066 -0.44419134 9.03189066 0 0 Z " fill="#2D2C2C" transform="translate(203,416)"/>
<path d="M0 0 C0.33 0.66 0.66 1.32 1 2 C1.66 2 2.32 2 3 2 C3.31453125 3.03640625 3.6290625 4.0728125 3.953125 5.140625 C4.38476767 6.51062131 4.8170956 7.88040186 5.25 9.25 C5.55744141 10.27287109 5.55744141 10.27287109 5.87109375 11.31640625 C7.21078381 15.49786309 8.60606157 18.18622198 12 21 C11.34 21.33 10.68 21.66 10 22 C7.54812429 21.15038414 6.30735595 20.53219773 4.99511719 18.26000977 C4.76469727 17.57737061 4.53427734 16.89473145 4.296875 16.19140625 C3.91015625 15.07088867 3.91015625 15.07088867 3.515625 13.92773438 C3.26296875 13.14720703 3.0103125 12.36667969 2.75 11.5625 C2.481875 10.78583984 2.21375 10.00917969 1.9375 9.20898438 C0.84185895 5.96398626 0 3.45381418 0 0 Z " fill="#2D2D2D" transform="translate(534,401)"/>
<path d="M0 0 C5.66218825 4.69841153 10.84661406 9.75215281 16 15 C16.66 15.66 17.32 16.32 18 17 C17.01 17.33 16.02 17.66 15 18 C11 14 7 10 3 6 C2.401875 5.46375 1.80375 4.9275 1.1875 4.375 C0 3 0 3 0 0 Z " fill="#20201F" transform="translate(323,620)"/>
<path d="M0 0 C4.40754911 0.51250571 7.31356611 1.5423774 11 4 C11.66 4.33 12.32 4.66 13 5 C14.03145371 6.30915279 15.03542166 7.64082143 16 9 C15.34 9 14.68 9 14 9 C13.67 9.66 13.34 10.32 13 11 C12.401875 10.360625 11.80375 9.72125 11.1875 9.0625 C9.09189663 6.79689611 9.09189663 6.79689611 6 6 C6 5.34 6 4.68 6 4 C5.195625 3.71125 4.39125 3.4225 3.5625 3.125 C1 2 1 2 0 0 Z " fill="#292929" transform="translate(454,260)"/>
<path d="M0 0 C3.79049707 1.42749981 7.27122456 3.16236542 10.8125 5.125 C12.27623047 5.93324219 12.27623047 5.93324219 13.76953125 6.7578125 C14.50558594 7.16773438 15.24164062 7.57765625 16 8 C16 8.99 16 9.98 16 11 C15.01 11.495 15.01 11.495 14 12 C13.34 10.35 12.68 8.7 12 7 C11.113125 7.061875 10.22625 7.12375 9.3125 7.1875 C5.58739096 6.97664477 3.89562024 6.31649619 1 4 C0.1875 1.8125 0.1875 1.8125 0 0 Z " fill="#2B2B2A" transform="translate(728,251)"/>
<path d="M0 0 C6.76923077 -0.30769231 6.76923077 -0.30769231 10 2 C11.4375 3.75 11.4375 3.75 12 6 C10.505375 9.93322367 9.53402157 11.64398562 6 14 C5.01 13.67 4.02 13.34 3 13 C3.825 12.608125 4.65 12.21625 5.5 11.8125 C6.325 11.214375 7.15 10.61625 8 10 C8.41780879 7.37305578 8.41780879 7.37305578 8 5 C5.36 3.68 2.72 2.36 0 1 C0 0.67 0 0.34 0 0 Z " fill="#393837" transform="translate(668,504)"/>
<path d="M0 0 C0 0.33 0 0.66 0 1 C-4.455 1.495 -4.455 1.495 -9 2 C-9 2.33 -9 2.66 -9 3 C-14.94 3 -20.88 3 -27 3 C-27 2.67 -27 2.34 -27 2 C-17.87995448 0.46859805 -9.25599658 -0.27675737 0 0 Z " fill="#393837" transform="translate(649,235)"/>
<path d="M0 0 C-2 2 -2 2 -4.625 2.125 C-5.40875 2.08375 -6.1925 2.0425 -7 2 C-7 2.99 -7 3.98 -7 5 C-9.31 5.66 -11.62 6.32 -14 7 C-14.33 6.67 -14.66 6.34 -15 6 C-16.32594105 5.63837971 -17.65938457 5.30271961 -19 5 C-16.39985473 3.96772138 -13.79573631 2.94894848 -11.1875 1.9375 C-10.44951172 1.64294922 -9.71152344 1.34839844 -8.95117188 1.04492188 C-3.33984375 -1.11328125 -3.33984375 -1.11328125 0 0 Z " fill="#353535" transform="translate(671,519)"/>
<path d="M0 0 C8.2056037 -0.29599372 15.92437827 0.56205146 24 2 C24 2.33 24 2.66 24 3 C18.06975197 3.97040422 12.93609666 3.89316269 7 3 C7 2.67 7 2.34 7 2 C4.69 1.67 2.38 1.34 0 1 C0 0.67 0 0.34 0 0 Z " fill="#393736" transform="translate(376,235)"/>
<path d="M0 0 C0 0.66 0 1.32 0 2 C-3.63719605 4.42479736 -5.85703482 4.38662577 -10.1875 4.625 C-11.45980469 4.69976563 -12.73210938 4.77453125 -14.04296875 4.8515625 C-15.50669922 4.92503906 -15.50669922 4.92503906 -17 5 C-11.65467807 1.43645204 -6.50060481 -0.48754536 0 0 Z " fill="#252526" transform="translate(636,532)"/>
<path d="M0 0 C0.66 0 1.32 0 2 0 C1.37321829 3.66172475 0.35548154 6.8818995 -1.0625 10.3125 C-1.42472656 11.19550781 -1.78695312 12.07851563 -2.16015625 12.98828125 C-2.43730469 13.65214844 -2.71445312 14.31601562 -3 15 C-4.95881942 11.72079119 -5.05559492 11.23826396 -4.125 7.25 C-3.75375 6.1775 -3.3825 5.105 -3 4 C-2.34 4 -1.68 4 -1 4 C-0.67 2.68 -0.34 1.36 0 0 Z " fill="#282828" transform="translate(809,470)"/>
<path d="M0 0 C0.99 0 1.98 0 3 0 C4.5703125 1.609375 4.5703125 1.609375 6.125 3.75 C6.64320313 4.44609375 7.16140625 5.1421875 7.6953125 5.859375 C8.96705311 7.94594343 9.55914517 9.61293238 10 12 C8.7010161 11.09373216 7.41106833 10.17450463 6.125 9.25 C5.40570313 8.73953125 4.68640625 8.2290625 3.9453125 7.703125 C1.89088411 5.90446882 0.97696648 4.529829 0 2 C0 1.34 0 0.68 0 0 Z " fill="#1D1E1D" transform="translate(469,752)"/>
<path d="M0 0 C1.27609323 0.90933009 2.54565553 1.82782853 3.8125 2.75 C4.87404297 3.51570313 4.87404297 3.51570313 5.95703125 4.296875 C8.02977691 6.02482358 9.47375854 7.78526476 11 10 C7.21213403 9.4739075 4.82847776 8.61896089 2 6 C2 5.34 2 4.68 2 4 C1.34 4 0.68 4 0 4 C0 2.68 0 1.36 0 0 Z " fill="#282828" transform="translate(757,269)"/>
<path d="M0 0 C2.01635978 3.02453967 3.03246502 5.63075348 4.1875 9.0625 C4.55230469 10.12597656 4.91710937 11.18945312 5.29296875 12.28515625 C6 15 6 15 5 17 C3 16 3 16 1.89453125 13.1640625 C1.53746094 11.99617187 1.18039062 10.82828125 0.8125 9.625 C0.44769531 8.46226562 0.08289063 7.29953125 -0.29296875 6.1015625 C-1 3 -1 3 0 0 Z " fill="#282828" transform="translate(485,609)"/>
<path d="M0 0 C1.16835309 3.50505927 0.75193262 4.66433282 -0.3125 8.125 C-0.57675781 9.01445313 -0.84101562 9.90390625 -1.11328125 10.8203125 C-2 13 -2 13 -4 14 C-5.1577506 10.52674819 -5.06866652 7.63932552 -5 4 C-4.01 4.495 -4.01 4.495 -3 5 C-2.67 4.01 -2.34 3.02 -2 2 C-1.34 2 -0.68 2 0 2 C0 1.34 0 0.68 0 0 Z " fill="#383837" transform="translate(515,559)"/>
<path d="M0 0 C0.99 0 1.98 0 3 0 C3 0.66 3 1.32 3 2 C3.886875 1.773125 4.77375 1.54625 5.6875 1.3125 C9.61650483 0.94183917 10.95893743 1.56714994 14 4 C14.33 4.99 14.66 5.98 15 7 C4.44191344 3.92482916 4.44191344 3.92482916 0 2 C0 1.34 0 0.68 0 0 Z " fill="#2E2D2D" transform="translate(625,487)"/>
<path d="M0 0 C1.32 0.33 2.64 0.66 4 1 C3 3 3 3 2 4 C2.99 4 3.98 4 5 4 C5.144375 4.7425 5.28875 5.485 5.4375 6.25 C5.93059024 8.91958229 5.93059024 8.91958229 6.6875 11.125 C7 13 7 13 5 16 C4.16280617 13.70967689 3.3301071 11.41789043 2.5 9.125 C2.14228516 8.14853516 2.14228516 8.14853516 1.77734375 7.15234375 C0 2.2265625 0 2.2265625 0 0 Z " fill="#292828" transform="translate(519,360)"/>
<path d="M0 0 C1.95538016 2.93307024 2.79298747 5.14142772 3.75 8.5 C4.03359375 9.4590625 4.3171875 10.418125 4.609375 11.40625 C5 14 5 14 3 17 C0.70657253 11.10261508 -0.34548714 6.33393082 0 0 Z " fill="#2A2929" transform="translate(210,453)"/>
<path d="M0 0 C0.58203125 1.8515625 0.58203125 1.8515625 1 4 C0.05988318 5.70116376 -0.94895617 7.36504293 -2 9 C-2.71143088 10.98451771 -3.38991336 12.98202112 -4 15 C-4.66 14.67 -5.32 14.34 -6 14 C-5.57202798 8.29370646 -3.15654048 4.58921384 0 0 Z " fill="#232223" transform="translate(228,311)"/>
<path d="M0 0 C0 3.33762623 -0.56766819 4.30885688 -2.3125 7.0625 C-2.74175781 7.75472656 -3.17101562 8.44695313 -3.61328125 9.16015625 C-5 11 -5 11 -8 13 C-8.66 12.34 -9.32 11.68 -10 11 C-9.52949219 10.54109375 -9.05898438 10.0821875 -8.57421875 9.609375 C-3.96631602 5.08450705 -3.96631602 5.08450705 0 0 Z " fill="#2E2E2E" transform="translate(585,570)"/>
<path d="M0 0 C0.99 0.33 1.98 0.66 3 1 C1.02 5.95 -0.96 10.9 -3 16 C-3.33 16 -3.66 16 -4 16 C-3.6083965 10.04492601 -2.62875405 5.37180176 0 0 Z " fill="#262626" transform="translate(506,352)"/>
<path d="M0 0 C1.66666667 1.66666667 3.33333333 3.33333333 5 5 C5.78375 5.680625 6.5675 6.36125 7.375 7.0625 C8.179375 8.0215625 8.179375 8.0215625 9 9 C8.6015625 11.12109375 8.6015625 11.12109375 8 13 C6.6578508 11.40320196 5.32652885 9.79729803 4 8.1875 C2.88625 6.84751953 2.88625 6.84751953 1.75 5.48046875 C0 3 0 3 0 0 Z " fill="#282827" transform="translate(266,557)"/>
<path d="M0 0 C0.66 0.33 1.32 0.66 2 1 C1 2 0 3 -1 4 C-1.515625 4.53625 -2.03125 5.0725 -2.5625 5.625 C-4 7 -4 7 -6 8 C-7.32 7.01 -8.64 6.02 -10 5 C-8.38007835 4.13624104 -6.75388139 3.28424146 -5.125 2.4375 C-4.22007812 1.96183594 -3.31515625 1.48617188 -2.3828125 0.99609375 C-1.20332031 0.50302734 -1.20332031 0.50302734 0 0 Z " fill="#2E2E2F" transform="translate(465,507)"/>
<path d="M0 0 C0.66 0.99 1.32 1.98 2 3 C1.34 3 0.68 3 0 3 C-0.226875 3.5775 -0.45375 4.155 -0.6875 4.75 C-2.33038023 7.5663661 -4.39533227 9.08077114 -7 11 C-7.66 10.34 -8.32 9.68 -9 9 C-6.03 6.03 -3.06 3.06 0 0 Z " fill="#2C2D2C" transform="translate(527,290)"/>
<path d="M0 0 C2.76223278 2.76223278 2.57856291 5.20706617 3 9 C2.01 8.67 1.02 8.34 0 8 C0 9.32 0 10.64 0 12 C-0.99 12.33 -1.98 12.66 -3 13 C-2.01 8.71 -1.02 4.42 0 0 Z " fill="#373736" transform="translate(511,450)"/>
<path d="M0 0 C0.66 0 1.32 0 2 0 C3.03435556 1.64556566 4.02763513 3.3170608 5 5 C6.11375 6.299375 6.11375 6.299375 7.25 7.625 C7.8275 8.40875 8.405 9.1925 9 10 C8.67 10.99 8.34 11.98 8 13 C5.03 9.7 2.06 6.4 -1 3 C-0.67 2.01 -0.34 1.02 0 0 Z " fill="#232323" transform="translate(297,592)"/>
<path d="M0 0 C-0.99 0.495 -0.99 0.495 -2 1 C-2.33 1.66 -2.66 2.32 -3 3 C-4.77734375 4.10546875 -4.77734375 4.10546875 -6.9375 5.1875 C-7.64777344 5.55230469 -8.35804688 5.91710937 -9.08984375 6.29296875 C-9.72019531 6.52628906 -10.35054688 6.75960938 -11 7 C-11.66 6.67 -12.32 6.34 -13 6 C-8.69305903 1.54454382 -6.32208571 -0.28098159 0 0 Z " fill="#313031" transform="translate(482,421)"/>
<path d="M0 0 C4.83256305 0.41421969 6.82679218 2.46413986 10 6 C9.67 6.99 9.34 7.98 9 9 C5.125 6.375 5.125 6.375 4 3 C1.99983534 1.79117904 1.99983534 1.79117904 0 1 C0 0.67 0 0.34 0 0 Z " fill="#2B2B2A" transform="translate(429,721)"/>
<path d="M0 0 C1.60938465 2.41407698 2.65490738 4.34044437 3.6875 7 C3.95949219 7.680625 4.23148437 8.36125 4.51171875 9.0625 C5 11 5 11 4 14 C2 13 2 13 0.875 10.375 C-0.05654649 6.78189212 -0.14783375 3.69584376 0 0 Z " fill="#2D2D2D" transform="translate(500,652)"/>
<path d="M0 0 C0.268125 0.556875 0.53625 1.11375 0.8125 1.6875 C1.98723915 4.08808046 1.98723915 4.08808046 3.6875 6.5 C5 9 5 9 4 13 C2.02 10.03 0.04 7.06 -2 4 C-1.34 2.68 -0.68 1.36 0 0 Z " fill="#2A2A2A" transform="translate(238,514)"/>
<path d="M0 0 C0.66 0.33 1.32 0.66 2 1 C1.8125 2.875 1.8125 2.875 1 5 C-2.68024779 7.08878929 -3.75492899 7.06126775 -8 6 C-5.36 4.02 -2.72 2.04 0 0 Z " fill="#2A2A2A" transform="translate(481,497)"/>
<path d="M0 0 C1.625 1.6875 1.625 1.6875 3 4 C2.4375 6.6875 2.4375 6.6875 1 9 C-1.125 9.8125 -1.125 9.8125 -3 10 C-2.39009109 6.44219804 -1.4216319 3.3171411 0 0 Z " fill="#2A2A2A" transform="translate(215,337)"/>
<path d="M0 0 C1.29608947 0.93137592 2.58671632 1.8703566 3.875 2.8125 C4.59429687 3.33457031 5.31359375 3.85664063 6.0546875 4.39453125 C8 6 8 6 10 9 C7.0625 8.625 7.0625 8.625 4 8 C3.67 7.34 3.34 6.68 3 6 C3.33 5.34 3.66 4.68 4 4 C3.01 4.33 2.02 4.66 1 5 C0.67 3.35 0.34 1.7 0 0 Z " fill="#2C2C2B" transform="translate(477,274)"/>
<path d="M0 0 C1.48285242 0.95262034 2.96118201 1.91228405 4.4375 2.875 C5.67306641 3.67550781 5.67306641 3.67550781 6.93359375 4.4921875 C9 6 9 6 10 8 C9.01 8.33 8.02 8.66 7 9 C6.566875 8.525625 6.13375 8.05125 5.6875 7.5625 C3.97690387 5.76313043 3.97690387 5.76313043 1 5 C0.67 3.35 0.34 1.7 0 0 Z " fill="#2B2A2A" transform="translate(746,261)"/>
<path d="M0 0 C0 3.60573896 -0.81707462 4.41336566 -3 7.1875 C-3.556875 7.90292969 -4.11375 8.61835937 -4.6875 9.35546875 C-5.120625 9.89816406 -5.55375 10.44085937 -6 11 C-6.66 9.68 -7.32 8.36 -8 7 C-5.42215154 4.35247996 -3.08351902 2.05567935 0 0 Z " fill="#2C2B2B" transform="translate(776,534)"/>
<path d="M0 0 C0.5534764 2.07553648 1 3.84365964 1 6 C2.98 6.66 4.96 7.32 7 8 C5.02 8.99 5.02 8.99 3 10 C0.5 7.75 0.5 7.75 -2 5 C-2 3.68 -2 2.36 -2 1 C-1.34 0.67 -0.68 0.34 0 0 Z " fill="#2A2929" transform="translate(346,509)"/>
<path d="M0 0 C2.83374881 3.20336822 3.5205537 5.78087253 4 10 C4.99 10.33 5.98 10.66 7 11 C6.01 12.485 6.01 12.485 5 14 C4.1533966 12.61217515 3.32324661 11.21430603 2.5 9.8125 C2.0359375 9.03519531 1.571875 8.25789063 1.09375 7.45703125 C-0.10729647 4.75896614 -0.20741043 2.9193018 0 0 Z " fill="#2D2D2D" transform="translate(223,489)"/>
<path d="M0 0 C0.99 0.33 1.98 0.66 3 1 C2.3125 4.375 2.3125 4.375 1 8 C-1.625 9.4375 -1.625 9.4375 -4 10 C-2.8905928 6.51329166 -1.73662334 3.22515763 0 0 Z " fill="#29292A" transform="translate(507,464)"/>
<path d="M0 0 C1.31225809 3.93677426 0.3393954 5.7794262 -0.9375 9.6875 C-1.50791016 11.45673828 -1.50791016 11.45673828 -2.08984375 13.26171875 C-2.39019531 14.16535156 -2.69054687 15.06898438 -3 16 C-3.33 16 -3.66 16 -4 16 C-4.25153688 9.71157812 -3.51233939 5.26850908 0 0 Z " fill="#323131" transform="translate(815,454)"/>
<path d="M0 0 C3.59634744 3.49359465 6.83451967 7.11098131 10 11 C9.67 11.66 9.34 12.32 9 13 C4.47294663 9.85621294 2.41995531 6.83991063 0 2 C0 1.34 0 0.68 0 0 Z " fill="#323131" transform="translate(781,292)"/>
<path d="M0 0 C3.71888239 0.50712033 6.73454239 1.11608215 10 3 C10 3.99 10 4.98 10 6 C7.03 5.505 7.03 5.505 4 5 C4 4.34 4 3.68 4 3 C3.34 3 2.68 3 2 3 C2 2.34 2 1.68 2 1 C1.34 0.67 0.68 0.34 0 0 Z " fill="#2F2E2E" transform="translate(411,539)"/>
<path d="M0 0 C0 0.66 0 1.32 0 2 C-2.31 2.66 -4.62 3.32 -7 4 C-7.66 3.01 -8.32 2.02 -9 1 C-5.64919071 -1.10976881 -3.77897651 -1.0497157 0 0 Z " fill="#292828" transform="translate(415,481)"/>
<path d="M0 0 C0 0.99 0 1.98 0 3 C-5.34883721 8 -5.34883721 8 -8 8 C-6.79618552 5.50638429 -5.54571278 3.31856917 -4 1 C-1.875 0.3125 -1.875 0.3125 0 0 Z " fill="#272727" transform="translate(246,290)"/>
<path d="M0 0 C2.97 1.65 5.94 3.3 9 5 C6 7 6 7 4 7 C2.97803008 6.02246356 1.98020375 5.0194119 1 4 C0.01 3.34 -0.98 2.68 -2 2 C-1.34 2 -0.68 2 0 2 C0 1.34 0 0.68 0 0 Z " fill="#282727" transform="translate(467,596)"/>
<path d="M0 0 C0 0.66 0 1.32 0 2 C-2.8125 2.6875 -2.8125 2.6875 -6 3 C-7.875 1.5625 -7.875 1.5625 -9 0 C-5.62182575 -0.84454356 -3.32534757 -1.10844919 0 0 Z " fill="#272626" transform="translate(516,785)"/>
<path d="M0 0 C0.66 0.33 1.32 0.66 2 1 C2 2.65 2 4.3 2 6 C-1.28696233 6.79953138 -2.71023192 7.09658936 -6 6 C-5.38125 5.7525 -4.7625 5.505 -4.125 5.25 C-1.64931313 3.79371361 -1.04874998 2.62187494 0 0 Z " fill="#2D2D2D" transform="translate(517,671)"/>
<path d="M0 0 C2.64 0 5.28 0 8 0 C8.99 1.98 9.98 3.96 11 6 C10.01 7.485 10.01 7.485 9 9 C8.01 6.69 7.02 4.38 6 2 C4.35 2 2.7 2 1 2 C0.67 1.34 0.34 0.68 0 0 Z " fill="#333231" transform="translate(509,351)"/>
<path d="M0 0 C3.7952131 1.49097658 5.61042731 3.75700849 8 7 C4.32579134 6.69381595 3.21864487 6.24228216 0.6875 3.4375 C0.130625 2.633125 -0.42625 1.82875 -1 1 C-0.67 0.67 -0.34 0.34 0 0 Z " fill="#201F1F" transform="translate(443,577)"/>
<path d="M0 0 C1.32 0.33 2.64 0.66 4 1 C4 3.97 4 6.94 4 10 C0 4 0 4 0 0 Z " fill="#2C2B2B" transform="translate(214,470)"/>
<path d="M0 0 C2.00293347 3.00440021 2.49271626 4.70993945 3.125 8.1875 C3.37636719 9.53908203 3.37636719 9.53908203 3.6328125 10.91796875 C3.75398437 11.60503906 3.87515625 12.29210937 4 13 C3.67 12.34 3.34 11.68 3 11 C2.34 11 1.68 11 1 11 C-0.17571451 7.32589215 -0.07366746 3.83070817 0 0 Z " fill="#302F2F" transform="translate(813,350)"/>
<path d="M0 0 C0.66 0.99 1.32 1.98 2 3 C0.02 4.32 -1.96 5.64 -4 7 C-4.33 6.34 -4.66 5.68 -5 5 C-5.99 4.67 -6.98 4.34 -8 4 C-6.576875 3.566875 -6.576875 3.566875 -5.125 3.125 C-1.94788422 2.23174891 -1.94788422 2.23174891 0 0 Z " fill="#2E2D2C" transform="translate(517,300)"/>
<path d="M0 0 C2.31 0.33 4.62 0.66 7 1 C4.7525351 3.2474649 3.0004758 4.02484536 0 5 C-0.66 4.67 -1.32 4.34 -2 4 C-1.34 2.68 -0.68 1.36 0 0 Z M7 0 C10 1 10 1 10 1 Z " fill="#282829" transform="translate(605,541)"/>
<path d="M0 0 C4.16943993 0.93599672 5.58410733 1.37616099 8 5 C4.1936543 4.32829194 0.64793184 3.27253436 -3 2 C-2.01 1.34 -1.02 0.68 0 0 Z " fill="#2D2D2D" transform="translate(649,495)"/>
<path d="M0 0 C0.33 0.66 0.66 1.32 1 2 C0.22265625 4.1640625 0.22265625 4.1640625 -0.9375 6.625 C-1.31777344 7.44226563 -1.69804688 8.25953125 -2.08984375 9.1015625 C-2.39019531 9.72804688 -2.69054687 10.35453125 -3 11 C-3.33 11 -3.66 11 -4 11 C-3.38461538 3.49230769 -3.38461538 3.49230769 -1.4375 1 C-0.963125 0.67 -0.48875 0.34 0 0 Z " fill="#2F2F2F" transform="translate(804,485)"/>
<path d="M0 0 C-0.54723683 3.37462715 -1.0549 5.08235 -3 8 C-3.66 7.34 -4.32 6.68 -5 6 C-4.75 3.4375 -4.75 3.4375 -4 1 C-2 0 -2 0 0 0 Z " fill="#292A2A" transform="translate(487,411)"/>
<path d="M0 0 C1.7074998 1.28062485 3.37373596 2.61767557 5 4 C5 4.66 5 5.32 5 6 C5.66 6 6.32 6 7 6 C6.67 6.66 6.34 7.32 6 8 C4.68 7.34 3.36 6.68 2 6 C2 5.34 2 4.68 2 4 C1.34 4 0.68 4 0 4 C0 2.68 0 1.36 0 0 Z " fill="#2F2E2E" transform="translate(770,280)"/>
<path d="M0 0 C0.66 0.33 1.32 0.66 2 1 C0.35 2.98 -1.3 4.96 -3 7 C-4.32 6.67 -5.64 6.34 -7 6 C-4.69 4.02 -2.38 2.04 0 0 Z " fill="#333232" transform="translate(550,270)"/>
<path d="M0 0 C0.66 0.33 1.32 0.66 2 1 C-0.475 4.465 -0.475 4.465 -3 8 C-4.32 7.67 -5.64 7.34 -7 7 C-4.69 4.69 -2.38 2.38 0 0 Z " fill="#333333" transform="translate(262,271)"/>
<path d="M0 0 C3.71888239 0.50712033 6.73454239 1.11608215 10 3 C9.34 3.66 8.68 4.32 8 5 C7.01 5 6.02 5 5 5 C5 4.34 5 3.68 5 3 C4.360625 2.87625 3.72125 2.7525 3.0625 2.625 C2.381875 2.41875 1.70125 2.2125 1 2 C0.67 1.34 0.34 0.68 0 0 Z " fill="#31302F" transform="translate(413,241)"/>
<path d="M0 0 C2 2 2 2 3 5.5625 C3.33 6.696875 3.66 7.83125 4 9 C4.66 9.33 5.32 9.66 6 10 C4.68 10 3.36 10 2 10 C1.67 7.69 1.34 5.38 1 3 C0.34 3 -0.32 3 -1 3 C-0.67 2.01 -0.34 1.02 0 0 Z " fill="#2D2D2C" transform="translate(505,667)"/>
<path d="M0 0 C0.33 0 0.66 0 1 0 C1.125 6.625 1.125 6.625 0 10 C-0.99 10.33 -1.98 10.66 -3 11 C-2.01 7.37 -1.02 3.74 0 0 Z " fill="#2B2B2A" transform="translate(527,643)"/>
<path d="M0 0 C2.45823172 3.68734758 3.01242616 6.69699971 4 11 C3.01 10.67 2.02 10.34 1 10 C-0.1577506 6.52674819 -0.06866652 3.63932552 0 0 Z " fill="#302F2F" transform="translate(491,626)"/>
<path d="M0 0 C0.66 0.33 1.32 0.66 2 1 C2 1.99 2 2.98 2 4 C1.34 4 0.68 4 0 4 C0 4.66 0 5.32 0 6 C-0.99 5.67 -1.98 5.34 -3 5 C-2.625 3.0625 -2.625 3.0625 -2 1 C-1.34 0.67 -0.68 0.34 0 0 Z " fill="#29292A" transform="translate(543,604)"/>
<path d="M0 0 C0 4.38968456 -2.12805101 5.76905739 -5 9 C-5.33 8.01 -5.66 7.02 -6 6 C-2.83636364 1.41818182 -2.83636364 1.41818182 0 0 Z " fill="#2D2D2C" transform="translate(768,545)"/>
<path d="M0 0 C1.48206495 0.254496 2.96068615 0.52911762 4.4375 0.8125 C5.67306641 1.03873047 5.67306641 1.03873047 6.93359375 1.26953125 C7.95646484 1.63111328 7.95646484 1.63111328 9 2 C9.33 2.99 9.66 3.98 10 5 C6.7 4.01 3.4 3.02 0 2 C0 1.34 0 0.68 0 0 Z " fill="#363535" transform="translate(603,479)"/>
<path d="M0 0 C1 2 1 2 0.44140625 4.1640625 C0.15136719 4.97617187 -0.13867188 5.78828125 -0.4375 6.625 C-0.72496094 7.44226563 -1.01242187 8.25953125 -1.30859375 9.1015625 C-1.53675781 9.72804688 -1.76492188 10.35453125 -2 11 C-2.33 11 -2.66 11 -3 11 C-3.125 4.375 -3.125 4.375 -2 1 C-1.34 0.67 -0.68 0.34 0 0 Z " fill="#303031" transform="translate(496,383)"/>
<path d="M0 0 C0.99 0.99 1.98 1.98 3 3 C2.67 3.99 2.34 4.98 2 6 C-0.0625 6.6875 -0.0625 6.6875 -2 7 C-1.125 2.25 -1.125 2.25 0 0 Z " fill="#2B2B2B" transform="translate(219,327)"/>
<path d="M0 0 C3.40312738 1.05875074 6.01353231 2.00902154 9 4 C8.67 4.99 8.34 5.98 8 7 C7.67 6.34 7.34 5.68 7 5 C6.01 4.690625 5.02 4.38125 4 4.0625 C3.01 3.711875 2.02 3.36125 1 3 C0.67 2.01 0.34 1.02 0 0 Z " fill="#3A3939" transform="translate(476,602)"/>
<path d="M0 0 C0.33 0.99 0.66 1.98 1 3 C-1.97 5.475 -1.97 5.475 -5 8 C-5 5 -5 5 -2.5 2.3125 C-1.675 1.549375 -0.85 0.78625 0 0 Z " fill="#201F1F" transform="translate(719,601)"/>
<path d="M0 0 C0.99 0.33 1.98 0.66 3 1 C2.34 3.31 1.68 5.62 1 8 C0.34 8 -0.32 8 -1 8 C-1.04241723 5.66705225 -1.04092937 3.33297433 -1 1 C-0.67 0.67 -0.34 0.34 0 0 Z " fill="#292929" transform="translate(516,551)"/>
<path d="M0 0 C1.32 0.33 2.64 0.66 4 1 C4 2.98 4 4.96 4 7 C2 5.1875 2 5.1875 0 3 C0 2.01 0 1.02 0 0 Z " fill="#262525" transform="translate(499,543)"/>
<path d="M0 0 C0.66 0.33 1.32 0.66 2 1 C1.34 2.65 0.68 4.3 0 6 C-0.99 6 -1.98 6 -3 6 C-3.33 5.34 -3.66 4.68 -4 4 C-3.34 4 -2.68 4 -2 4 C-1.34 2.68 -0.68 1.36 0 0 Z " fill="#303030" transform="translate(253,279)"/>
<path d="M0 0 C5.75 1.75 5.75 1.75 8 4 C7.67 4.99 7.34 5.98 7 7 C5.83040013 6.02433888 4.66438823 5.044375 3.5 4.0625 C2.8503125 3.51722656 2.200625 2.97195313 1.53125 2.41015625 C1.0259375 1.94480469 0.520625 1.47945312 0 1 C0 0.67 0 0.34 0 0 Z " fill="#2D2C2B" transform="translate(471,757)"/>
<path d="M0 0 C5.75 1.625 5.75 1.625 8 5 C7.01 5.495 7.01 5.495 6 6 C5.34 5.67 4.68 5.34 4 5 C4 4.34 4 3.68 4 3 C2.68 2.34 1.36 1.68 0 1 C0 0.67 0 0.34 0 0 Z " fill="#2C2B2B" transform="translate(353,652)"/>
<path d="M0 0 C-4.95 1.485 -4.95 1.485 -10 3 C-9 0 -9 0 -6.6875 -1.3125 C-4 -2 -4 -2 0 0 Z " fill="#2E2E2E" transform="translate(383,495)"/>
<path d="M0 0 C1.64826111 2.96687001 2.44271087 5.65626525 3 9 C1.68 8.67 0.36 8.34 -1 8 C-0.67 5.36 -0.34 2.72 0 0 Z " fill="#313030" transform="translate(497,643)"/>
<path d="M0 0 C0.66 0.33 1.32 0.66 2 1 C1.67 1.99 1.34 2.98 1 4 C-1.31 4 -3.62 4 -6 4 C-4.03617993 2.49440461 -2.21736634 1.10868317 0 0 Z " fill="#2E2D2E" transform="translate(299,248)"/>
<path d="M0 0 C2.31 0.66 4.62 1.32 7 2 C6.34 2.66 5.68 3.32 5 4 C3.68 4 2.36 4 1 4 C0.67 2.68 0.34 1.36 0 0 Z " fill="#2A2A2A" transform="translate(428,246)"/>
<path d="M0 0 C-0.33 0.99 -0.66 1.98 -1 3 C-4.3 2.67 -7.6 2.34 -11 2 C-11 1.67 -11 1.34 -11 1 C-7.27569643 0.30710631 -3.78916254 -0.11144596 0 0 Z " fill="#414140" transform="translate(345,236)"/>
<path d="M0 0 C0.33 0 0.66 0 1 0 C1 1.98 1 3.96 1 6 C0.67 6 0.34 6 0 6 C0 4.02 0 2.04 0 0 Z " fill="#3E3E3E" transform="translate(201,419)"/>
<path d="M0 0 C0.66 0.33 1.32 0.66 2 1 C1.01 1 0.02 1 -1 1 C-0.67 0.67 -0.34 0.34 0 0 Z " fill="#383734" transform="translate(673,508)"/>
<path d="M0 0 C3 1 3 1 3 1 Z " fill="#3C3D3B" transform="translate(553,592)"/>
<path d="M0 0 C3 1 3 1 3 1 Z " fill="#383737" transform="translate(370,522)"/>
<path d="" fill="#3C3A3A" transform="translate(0,0)"/>
<path d="M0 0 C0.33 0.66 0.66 1.32 1 2 C0.34 1.67 -0.32 1.34 -1 1 C-0.67 0.67 -0.34 0.34 0 0 Z " fill="#3D3E3E" transform="translate(201,384)"/>
<path d="M0 0 C0.66 0.66 1.32 1.32 2 2 C1.34 2 0.68 2 0 2 C0 1.34 0 0.68 0 0 Z " fill="#413F3E" transform="translate(730,249)"/>
<path d="M0 0 C3 1 3 1 3 1 Z " fill="#464444" transform="translate(371,232)"/>
<path d="" fill="#3B3A3A" transform="translate(0,0)"/>
<path d="" fill="#3A3837" transform="translate(0,0)"/>
<path d="" fill="#343334" transform="translate(0,0)"/>
<path d="" fill="#3A3939" transform="translate(0,0)"/>
<path d="" fill="#3F3E3E" transform="translate(0,0)"/>
<path d="" fill="#393838" transform="translate(0,0)"/>
<path d="" fill="#393739" transform="translate(0,0)"/>
<path d="M0 0 C2 1 2 1 2 1 Z " fill="#393838" transform="translate(374,520)"/>
<path d="" fill="#383636" transform="translate(0,0)"/>
<path d="M0 0 C2 1 2 1 2 1 Z " fill="#383736" transform="translate(649,499)"/>
<path d="" fill="#3B3739" transform="translate(0,0)"/>
<path d="" fill="#3B3A3A" transform="translate(0,0)"/>
<path d="" fill="#393936" transform="translate(0,0)"/>
<path d="" fill="#39393A" transform="translate(0,0)"/>
<path d="" fill="#3A3838" transform="translate(0,0)"/>
<path d="" fill="#383737" transform="translate(0,0)"/>
<path d="" fill="#3F3E3E" transform="translate(0,0)"/>
<path d="" fill="#373535" transform="translate(0,0)"/>
<path d="M0 0 C2 1 2 1 2 1 Z " fill="#353534" transform="translate(513,353)"/>
<path d="" fill="#403F3F" transform="translate(0,0)"/>
<path d="" fill="#383837" transform="translate(0,0)"/>
<path d="" fill="#40403E" transform="translate(0,0)"/>
<path d="M0 0 C2 1 2 1 2 1 Z " fill="#423F40" transform="translate(718,244)"/>
<path d="M0 0 C2 1 2 1 2 1 Z " fill="#403E3D" transform="translate(417,240)"/>
<path d="M0 0 C2 1 2 1 2 1 Z " fill="#474544" transform="translate(368,232)"/>
<path d="" fill="#3B3B3A" transform="translate(0,0)"/>
<path d="" fill="#40403E" transform="translate(0,0)"/>
<path d="" fill="#3F3E3D" transform="translate(0,0)"/>
<path d="" fill="#3C3C3C" transform="translate(0,0)"/>
<path d="" fill="#3B393B" transform="translate(0,0)"/>
<path d="" fill="#3E393B" transform="translate(0,0)"/>
<path d="" fill="#3C3B3A" transform="translate(0,0)"/>
<path d="" fill="#383535" transform="translate(0,0)"/>
<path d="" fill="#3D3A3C" transform="translate(0,0)"/>
<path d="" fill="#3C3A3C" transform="translate(0,0)"/>
<path d="" fill="#393836" transform="translate(0,0)"/>
<path d="" fill="#343635" transform="translate(0,0)"/>
<path d="" fill="#3B3A38" transform="translate(0,0)"/>
<path d="" fill="#3A3A39" transform="translate(0,0)"/>
<path d="" fill="#3A3737" transform="translate(0,0)"/>
<path d="" fill="#3A3737" transform="translate(0,0)"/>
<path d="" fill="#3C3A39" transform="translate(0,0)"/>
<path d="" fill="#393638" transform="translate(0,0)"/>
<path d="" fill="#393535" transform="translate(0,0)"/>
<path d="" fill="#3D3B39" transform="translate(0,0)"/>
<path d="" fill="#373636" transform="translate(0,0)"/>
<path d="" fill="#3B3B3A" transform="translate(0,0)"/>
<path d="" fill="#3D3C3A" transform="translate(0,0)"/>
<path d="" fill="#3B393A" transform="translate(0,0)"/>
<path d="" fill="#3B3838" transform="translate(0,0)"/>
<path d="" fill="#393939" transform="translate(0,0)"/>
<path d="" fill="#3B3738" transform="translate(0,0)"/>
<path d="" fill="#333131" transform="translate(0,0)"/>
<path d="" fill="#353333" transform="translate(0,0)"/>
<path d="" fill="#3C3B39" transform="translate(0,0)"/>
<path d="" fill="#363134" transform="translate(0,0)"/>
<path d="" fill="#373436" transform="translate(0,0)"/>
<path d="" fill="#343332" transform="translate(0,0)"/>
<path d="" fill="#3C3B39" transform="translate(0,0)"/>
<path d="" fill="#373535" transform="translate(0,0)"/>
<path d="" fill="#3C3C3F" transform="translate(0,0)"/>
<path d="" fill="#3A3B3A" transform="translate(0,0)"/>
<path d="" fill="#403B3D" transform="translate(0,0)"/>
<path d="" fill="#3E3C3B" transform="translate(0,0)"/>
<path d="" fill="#3D3D3B" transform="translate(0,0)"/>
<path d="" fill="#3F3D3C" transform="translate(0,0)"/>
<path d="" fill="#383839" transform="translate(0,0)"/>
<path d="" fill="#383534" transform="translate(0,0)"/>
<path d="" fill="#3E3B3C" transform="translate(0,0)"/>
<path d="" fill="#3B3B3B" transform="translate(0,0)"/>
<path d="" fill="#373636" transform="translate(0,0)"/>
<path d="" fill="#3C3939" transform="translate(0,0)"/>
<path d="" fill="#393837" transform="translate(0,0)"/>
<path d="" fill="#3A3A3B" transform="translate(0,0)"/>
<path d="" fill="#343130" transform="translate(0,0)"/>
<path d="" fill="#393637" transform="translate(0,0)"/>
<path d="" fill="#383A39" transform="translate(0,0)"/>
<path d="" fill="#3C393A" transform="translate(0,0)"/>
<path d="" fill="#393837" transform="translate(0,0)"/>
<path d="" fill="#3A3B3A" transform="translate(0,0)"/>
<path d="" fill="#423F41" transform="translate(0,0)"/>
<path d="" fill="#3F3E3D" transform="translate(0,0)"/>
<path d="" fill="#3A3937" transform="translate(0,0)"/>
<path d="" fill="#404040" transform="translate(0,0)"/>
<path d="" fill="#423F40" transform="translate(0,0)"/>
<path d="" fill="#373837" transform="translate(0,0)"/>
<path d="" fill="#3C3E3C" transform="translate(0,0)"/>
<path d="" fill="#3A3A37" transform="translate(0,0)"/>
<path d="" fill="#3F3C3B" transform="translate(0,0)"/>
<path d="" fill="#3D3B3A" transform="translate(0,0)"/>
<path d="" fill="#3A3635" transform="translate(0,0)"/>
<path d="" fill="#3C3A3A" transform="translate(0,0)"/>
<path d="" fill="#3B3B3A" transform="translate(0,0)"/>
<path d="" fill="#3F3D3D" transform="translate(0,0)"/>
<path d="" fill="#393637" transform="translate(0,0)"/>
<path d="" fill="#3F3D3C" transform="translate(0,0)"/>
<path d="" fill="#393B3B" transform="translate(0,0)"/>
<path d="" fill="#3F3D3C" transform="translate(0,0)"/>
<path d="" fill="#3D3A3A" transform="translate(0,0)"/>
<path d="" fill="#3C3B3C" transform="translate(0,0)"/>
<path d="" fill="#3F3C3C" transform="translate(0,0)"/>
<path d="" fill="#3A393A" transform="translate(0,0)"/>
<path d="" fill="#3D3D3C" transform="translate(0,0)"/>
<path d="" fill="#383835" transform="translate(0,0)"/>
<path d="" fill="#3D3B3C" transform="translate(0,0)"/>
<path d="" fill="#39393A" transform="translate(0,0)"/>
<path d="" fill="#383535" transform="translate(0,0)"/>
<path d="" fill="#383735" transform="translate(0,0)"/>
<path d="" fill="#404040" transform="translate(0,0)"/>
<path d="" fill="#393738" transform="translate(0,0)"/>
<path d="" fill="#393837" transform="translate(0,0)"/>
<path d="" fill="#373938" transform="translate(0,0)"/>
<path d="" fill="#363535" transform="translate(0,0)"/>
<path d="" fill="#383637" transform="translate(0,0)"/>
<path d="" fill="#383432" transform="translate(0,0)"/>
<path d="" fill="#363534" transform="translate(0,0)"/>
<path d="" fill="#363332" transform="translate(0,0)"/>
<path d="" fill="#373737" transform="translate(0,0)"/>
<path d="" fill="#3B3939" transform="translate(0,0)"/>
<path d="" fill="#3C3B3A" transform="translate(0,0)"/>
<path d="" fill="#393A3A" transform="translate(0,0)"/>
<path d="" fill="#373536" transform="translate(0,0)"/>
<path d="" fill="#393839" transform="translate(0,0)"/>
<path d="" fill="#3C3B3B" transform="translate(0,0)"/>
<path d="" fill="#3B3A3C" transform="translate(0,0)"/>
<path d="" fill="#353535" transform="translate(0,0)"/>
<path d="" fill="#393737" transform="translate(0,0)"/>
<path d="" fill="#373635" transform="translate(0,0)"/>
<path d="" fill="#403D3C" transform="translate(0,0)"/>
<path d="" fill="#3E3A3D" transform="translate(0,0)"/>
<path d="" fill="#3D3B3C" transform="translate(0,0)"/>
<path d="" fill="#3C3A3A" transform="translate(0,0)"/>
<path d="" fill="#353433" transform="translate(0,0)"/>
<path d="" fill="#3A3839" transform="translate(0,0)"/>
<path d="" fill="#3B383A" transform="translate(0,0)"/>
<path d="" fill="#3A3938" transform="translate(0,0)"/>
<path d="" fill="#3E3D3D" transform="translate(0,0)"/>
<path d="" fill="#3E3D3D" transform="translate(0,0)"/>
<path d="" fill="#373535" transform="translate(0,0)"/>
<path d="" fill="#393938" transform="translate(0,0)"/>
<path d="" fill="#3A3C3A" transform="translate(0,0)"/>
<path d="" fill="#3D3C3C" transform="translate(0,0)"/>
<path d="" fill="#3B3A39" transform="translate(0,0)"/>
<path d="" fill="#3B3C3C" transform="translate(0,0)"/>
<path d="" fill="#383737" transform="translate(0,0)"/>
<path d="" fill="#414041" transform="translate(0,0)"/>
<path d="" fill="#3C3E3F" transform="translate(0,0)"/>
<path d="" fill="#3F3D3D" transform="translate(0,0)"/>
<path d="" fill="#393837" transform="translate(0,0)"/>
<path d="" fill="#3D393A" transform="translate(0,0)"/>
<path d="" fill="#414141" transform="translate(0,0)"/>
<path d="" fill="#393838" transform="translate(0,0)"/>
<path d="" fill="#464643" transform="translate(0,0)"/>
<path d="" fill="#3E3C3C" transform="translate(0,0)"/>
<path d="" fill="#3D3D3C" transform="translate(0,0)"/>
<path d="" fill="#3F3D3A" transform="translate(0,0)"/>
<path d="" fill="#373736" transform="translate(0,0)"/>
<path d="" fill="#3A3A3C" transform="translate(0,0)"/>
<path d="" fill="#393838" transform="translate(0,0)"/>
<path d="" fill="#3C3A3A" transform="translate(0,0)"/>
<path d="" fill="#373734" transform="translate(0,0)"/>
<path d="" fill="#3C3B3C" transform="translate(0,0)"/>
<path d="" fill="#363434" transform="translate(0,0)"/>
<path d="" fill="#3F3C3D" transform="translate(0,0)"/>
<path d="" fill="#3E3D3D" transform="translate(0,0)"/>
<path d="" fill="#3D3A3B" transform="translate(0,0)"/>
<path d="" fill="#3A3937" transform="translate(0,0)"/>
<path d="" fill="#3A3A3A" transform="translate(0,0)"/>
<path d="" fill="#3D3E3D" transform="translate(0,0)"/>
<path d="" fill="#3E3F3E" transform="translate(0,0)"/>
<path d="" fill="#3E3B3B" transform="translate(0,0)"/>
<path d="" fill="#393A3A" transform="translate(0,0)"/>
<path d="" fill="#393A3A" transform="translate(0,0)"/>
<path d="" fill="#3B3B3A" transform="translate(0,0)"/>
<path d="" fill="#393637" transform="translate(0,0)"/>
<path d="" fill="#3C3A3A" transform="translate(0,0)"/>
<path d="" fill="#3F3F3E" transform="translate(0,0)"/>
<path d="" fill="#3C393B" transform="translate(0,0)"/>
<path d="" fill="#302F33" transform="translate(0,0)"/>
<path d="" fill="#363435" transform="translate(0,0)"/>
<path d="" fill="#3E3D3C" transform="translate(0,0)"/>
<path d="" fill="#383938" transform="translate(0,0)"/>
<path d="" fill="#383737" transform="translate(0,0)"/>
<path d="" fill="#373537" transform="translate(0,0)"/>
<path d="" fill="#414141" transform="translate(0,0)"/>
<path d="" fill="#383636" transform="translate(0,0)"/>
<path d="" fill="#393937" transform="translate(0,0)"/>
<path d="" fill="#373736" transform="translate(0,0)"/>
<path d="" fill="#383636" transform="translate(0,0)"/>
<path d="" fill="#312F31" transform="translate(0,0)"/>
<path d="" fill="#41403F" transform="translate(0,0)"/>
<path d="" fill="#424141" transform="translate(0,0)"/>
<path d="" fill="#3E3E3E" transform="translate(0,0)"/>
<path d="" fill="#3E3D3D" transform="translate(0,0)"/>
<path d="" fill="#3F3E3D" transform="translate(0,0)"/>
<path d="" fill="#3D3E3B" transform="translate(0,0)"/>
<path d="" fill="#3E3E3D" transform="translate(0,0)"/>
<path d="" fill="#3F3F41" transform="translate(0,0)"/>
<path d="" fill="#41403F" transform="translate(0,0)"/>
<path d="" fill="#3F3D3E" transform="translate(0,0)"/>
<path d="" fill="#383735" transform="translate(0,0)"/>
<path d="" fill="#363737" transform="translate(0,0)"/>
<path d="" fill="#404040" transform="translate(0,0)"/>
<path d="" fill="#383637" transform="translate(0,0)"/>
<path d="" fill="#39393A" transform="translate(0,0)"/>
<path d="" fill="#363736" transform="translate(0,0)"/>
<path d="" fill="#3A3937" transform="translate(0,0)"/>
<path d="" fill="#393838" transform="translate(0,0)"/>
<path d="" fill="#3C3A3A" transform="translate(0,0)"/>
<path d="" fill="#464243" transform="translate(0,0)"/>
<path d="" fill="#3F3F3E" transform="translate(0,0)"/>
<path d="" fill="#424341" transform="translate(0,0)"/>
<path d="" fill="#3D3D3C" transform="translate(0,0)"/>
<path d="" fill="#403C3E" transform="translate(0,0)"/>
<path d="" fill="#3E3E3F" transform="translate(0,0)"/>
<path d="" fill="#424242" transform="translate(0,0)"/>
<path d="" fill="#404040" transform="translate(0,0)"/>
<path d="" fill="#3C3D3D" transform="translate(0,0)"/>
<path d="" fill="#434243" transform="translate(0,0)"/>
<path d="" fill="#3D3C3A" transform="translate(0,0)"/>
<path d="" fill="#3D383B" transform="translate(0,0)"/>
<path d="" fill="#403E3D" transform="translate(0,0)"/>
<path d="" fill="#404041" transform="translate(0,0)"/>
<path d="" fill="#414441" transform="translate(0,0)"/>
<path d="" fill="#3E3C3D" transform="translate(0,0)"/>
<path d="" fill="#3F403E" transform="translate(0,0)"/>
<path d="" fill="#444141" transform="translate(0,0)"/>
<path d="" fill="#40423D" transform="translate(0,0)"/>
<path d="" fill="#444040" transform="translate(0,0)"/>
<path d="" fill="#3F3E3E" transform="translate(0,0)"/>
<path d="" fill="#3D3B3C" transform="translate(0,0)"/>
<path d="" fill="#424241" transform="translate(0,0)"/>
<path d="" fill="#3C3B3C" transform="translate(0,0)"/>
<path d="" fill="#413F40" transform="translate(0,0)"/>
<path d="" fill="#424142" transform="translate(0,0)"/>
<path d="" fill="#3E3E3E" transform="translate(0,0)"/>
<path d="" fill="#3D3D3D" transform="translate(0,0)"/>
<path d="" fill="#413E3F" transform="translate(0,0)"/>
<path d="" fill="#3E4040" transform="translate(0,0)"/>
<path d="" fill="#403E41" transform="translate(0,0)"/>
<path d="" fill="#3E3D3C" transform="translate(0,0)"/>
<path d="" fill="#41413F" transform="translate(0,0)"/>
<path d="" fill="#403F3D" transform="translate(0,0)"/>
<path d="" fill="#3E3A3E" transform="translate(0,0)"/>
<path d="" fill="#434440" transform="translate(0,0)"/>
<path d="" fill="#434040" transform="translate(0,0)"/>
<path d="" fill="#424241" transform="translate(0,0)"/>
<path d="" fill="#424140" transform="translate(0,0)"/>
<path d="" fill="#3F3F40" transform="translate(0,0)"/>
<path d="" fill="#41403F" transform="translate(0,0)"/>
<path d="" fill="#444141" transform="translate(0,0)"/>
<path d="" fill="#444341" transform="translate(0,0)"/>
<path d="" fill="#434240" transform="translate(0,0)"/>
<path d="" fill="#434141" transform="translate(0,0)"/>
<path d="" fill="#423F41" transform="translate(0,0)"/>
<path d="" fill="#454141" transform="translate(0,0)"/>
<path d="" fill="#424141" transform="translate(0,0)"/>
<path d="" fill="#484642" transform="translate(0,0)"/>
</svg>
