<svg width="64" height="64" viewBox="0 0 64 64" fill="none" xmlns="http://www.w3.org/2000/svg">
  <rect width="64" height="64" rx="16" fill="#CCAB78"/>
  <rect x="3" y="3" width="58" height="58" rx="13" stroke="#7A2D30" stroke-opacity="0.22" stroke-width="2"/>
  <path d="M31.732 46.2C25.876 46.2 21.064 43.9 17.76 39.72L21.984 35.888C23.704 38.048 26.176 39.464 28.488 39.464C31.348 39.464 32.896 38.244 32.896 36.288C32.896 34.3 31.132 33.44 27.152 32.332C21.736 30.832 18.976 28.364 18.976 23.432C18.976 18.284 23.344 14.6 29.428 14.6C33.296 14.6 36.46 15.8 38.848 18.156L35.228 22.308C33.464 20.544 31.34 19.624 29.06 19.624C26.376 19.624 24.736 20.844 24.736 22.64C24.736 24.5 26.188 25.468 30.432 26.668C36.204 28.32 38.76 30.676 38.76 35.312C38.76 40.808 34.536 46.2 31.732 46.2Z" fill="#292225"/>
</svg>
